solid ascii
  facet normal 0.000000e+00 0.000000e+00 -1.000000e+00
    outer loop
      vertex   2.500000e+00 3.000000e+00 0.000000e+00
      vertex   1.750000e+00 3.000000e+00 0.000000e+00
      vertex   1.750000e+00 8.000000e+01 0.000000e+00
    endloop
  endfacet
  facet normal 0.000000e+00 0.000000e+00 -1.000000e+00
    outer loop
      vertex   1.750000e+00 8.000000e+01 0.000000e+00
      vertex   2.500000e+00 8.000000e+01 0.000000e+00
      vertex   2.500000e+00 3.000000e+00 0.000000e+00
    endloop
  endfacet
  facet normal 1.000000e+00 0.000000e+00 0.000000e+00
    outer loop
      vertex   2.500000e+00 3.000000e+00 0.000000e+00
      vertex   2.500000e+00 8.000000e+01 0.000000e+00
      vertex   2.500000e+00 8.000000e+01 2.800000e+01
    endloop
  endfacet
  facet normal 1.000000e+00 0.000000e+00 0.000000e+00
    outer loop
      vertex   2.500000e+00 8.000000e+01 2.800000e+01
      vertex   2.500000e+00 3.000000e+00 2.800000e+01
      vertex   2.500000e+00 3.000000e+00 0.000000e+00
    endloop
  endfacet
  facet normal 0.000000e+00 -0.000000e+00 1.000000e+00
    outer loop
      vertex   2.500000e+00 3.000000e+00 2.800000e+01
      vertex   2.500000e+00 8.000000e+01 2.800000e+01
      vertex   1.250000e+00 8.000000e+01 2.800000e+01
    endloop
  endfacet
  facet normal 0.000000e+00 0.000000e+00 1.000000e+00
    outer loop
      vertex   1.250000e+00 8.000000e+01 2.800000e+01
      vertex   1.250000e+00 3.000000e+00 2.800000e+01
      vertex   2.500000e+00 3.000000e+00 2.800000e+01
    endloop
  endfacet
  facet normal 0.000000e+00 -1.000000e+00 0.000000e+00
    outer loop
      vertex   1.750000e+00 3.000000e+00 0.000000e+00
      vertex   2.500000e+00 3.000000e+00 0.000000e+00
      vertex   2.500000e+00 3.000000e+00 2.800000e+01
    endloop
  endfacet
  facet normal -0.000000e+00 -1.000000e+00 0.000000e+00
    outer loop
      vertex   2.500000e+00 3.000000e+00 2.800000e+01
      vertex   1.250000e+00 3.000000e+00 2.800000e+01
      vertex   1.750000e+00 3.000000e+00 0.000000e+00
    endloop
  endfacet
  facet normal 0.000000e+00 -1.000000e+00 0.000000e+00
    outer loop
      vertex   1.250000e+00 3.000000e+00 2.800000e+01
      vertex   1.250000e+00 3.000000e+00 0.000000e+00
      vertex   1.750000e+00 3.000000e+00 0.000000e+00
    endloop
  endfacet
  facet normal 0.000000e+00 0.000000e+00 1.000000e+00
    outer loop
      vertex   1.250000e+00 3.000000e+00 0.000000e+00
      vertex   1.250000e+00 2.000000e+00 0.000000e+00
      vertex   1.750000e+00 2.000000e+00 0.000000e+00
    endloop
  endfacet
  facet normal 0.000000e+00 -0.000000e+00 1.000000e+00
    outer loop
      vertex   1.750000e+00 2.000000e+00 0.000000e+00
      vertex   1.750000e+00 3.000000e+00 0.000000e+00
      vertex   1.250000e+00 3.000000e+00 0.000000e+00
    endloop
  endfacet
  facet normal 1.000000e+00 0.000000e+00 0.000000e+00
    outer loop
      vertex   1.750000e+00 0.000000e+00 -2.500000e+00
      vertex   1.750000e+00 8.000000e+01 -2.500000e+00
      vertex   1.750000e+00 8.000000e+01 0.000000e+00
    endloop
  endfacet
  facet normal 1.000000e+00 0.000000e+00 0.000000e+00
    outer loop
      vertex   1.750000e+00 8.000000e+01 0.000000e+00
      vertex   1.750000e+00 3.000000e+00 0.000000e+00
      vertex   1.750000e+00 0.000000e+00 -2.500000e+00
    endloop
  endfacet
  facet normal 1.000000e+00 0.000000e+00 0.000000e+00
    outer loop
      vertex   1.750000e+00 0.000000e+00 -2.500000e+00
      vertex   1.750000e+00 3.000000e+00 0.000000e+00
      vertex   1.750000e+00 2.000000e+00 0.000000e+00
    endloop
  endfacet
  facet normal 1.000000e+00 0.000000e+00 0.000000e+00
    outer loop
      vertex   1.750000e+00 2.000000e+00 0.000000e+00
      vertex   1.750000e+00 0.000000e+00 0.000000e+00
      vertex   1.750000e+00 0.000000e+00 -2.500000e+00
    endloop
  endfacet
  facet normal 0.000000e+00 0.000000e+00 -1.000000e+00
    outer loop
      vertex   1.750000e+00 2.000000e+00 0.000000e+00
      vertex   2.500000e+00 2.000000e+00 0.000000e+00
      vertex   2.500000e+00 0.000000e+00 0.000000e+00
    endloop
  endfacet
  facet normal 0.000000e+00 0.000000e+00 -1.000000e+00
    outer loop
      vertex   2.500000e+00 0.000000e+00 0.000000e+00
      vertex   1.750000e+00 0.000000e+00 0.000000e+00
      vertex   1.750000e+00 2.000000e+00 0.000000e+00
    endloop
  endfacet
  facet normal 0.000000e+00 1.000000e+00 0.000000e+00
    outer loop
      vertex   1.750000e+00 2.000000e+00 0.000000e+00
      vertex   1.250000e+00 2.000000e+00 0.000000e+00
      vertex   1.250000e+00 2.000000e+00 2.800000e+01
    endloop
  endfacet
  facet normal 0.000000e+00 1.000000e+00 -0.000000e+00
    outer loop
      vertex   1.750000e+00 2.000000e+00 0.000000e+00
      vertex   1.250000e+00 2.000000e+00 2.800000e+01
      vertex   2.500000e+00 2.000000e+00 2.800000e+01
    endloop
  endfacet
  facet normal 0.000000e+00 1.000000e+00 0.000000e+00
    outer loop
      vertex   2.500000e+00 2.000000e+00 2.800000e+01
      vertex   2.500000e+00 2.000000e+00 0.000000e+00
      vertex   1.750000e+00 2.000000e+00 0.000000e+00
    endloop
  endfacet
  facet normal 1.000000e+00 0.000000e+00 -0.000000e+00
    outer loop
      vertex   2.500000e+00 2.000000e+00 0.000000e+00
      vertex   2.500000e+00 2.000000e+00 2.800000e+01
      vertex   2.500000e+00 0.000000e+00 2.800000e+01
    endloop
  endfacet
  facet normal 1.000000e+00 0.000000e+00 0.000000e+00
    outer loop
      vertex   2.500000e+00 0.000000e+00 2.800000e+01
      vertex   2.500000e+00 0.000000e+00 0.000000e+00
      vertex   2.500000e+00 2.000000e+00 0.000000e+00
    endloop
  endfacet
  facet normal 0.000000e+00 0.000000e+00 1.000000e+00
    outer loop
      vertex   1.250000e+00 2.000000e+00 2.800000e+01
      vertex   1.250000e+00 0.000000e+00 2.800000e+01
      vertex   2.500000e+00 0.000000e+00 2.800000e+01
    endloop
  endfacet
  facet normal 0.000000e+00 -0.000000e+00 1.000000e+00
    outer loop
      vertex   2.500000e+00 0.000000e+00 2.800000e+01
      vertex   2.500000e+00 2.000000e+00 2.800000e+01
      vertex   1.250000e+00 2.000000e+00 2.800000e+01
    endloop
  endfacet
  facet normal 0.000000e+00 -0.000000e+00 1.000000e+00
    outer loop
      vertex   2.500000e+00 0.000000e+00 -2.500000e+00
      vertex   2.500000e+00 8.000000e+01 -2.500000e+00
      vertex   1.750000e+00 8.000000e+01 -2.500000e+00
    endloop
  endfacet
  facet normal 0.000000e+00 0.000000e+00 1.000000e+00
    outer loop
      vertex   1.750000e+00 8.000000e+01 -2.500000e+00
      vertex   1.750000e+00 0.000000e+00 -2.500000e+00
      vertex   2.500000e+00 0.000000e+00 -2.500000e+00
    endloop
  endfacet
  facet normal 1.000000e+00 0.000000e+00 0.000000e+00
    outer loop
      vertex   2.500000e+00 0.000000e+00 -3.000000e+00
      vertex   2.500000e+00 8.000000e+01 -3.000000e+00
      vertex   2.500000e+00 8.000000e+01 -2.500000e+00
    endloop
  endfacet
  facet normal 1.000000e+00 0.000000e+00 0.000000e+00
    outer loop
      vertex   2.500000e+00 8.000000e+01 -2.500000e+00
      vertex   2.500000e+00 0.000000e+00 -2.500000e+00
      vertex   2.500000e+00 0.000000e+00 -3.000000e+00
    endloop
  endfacet
  facet normal 0.000000e+00 0.000000e+00 -1.000000e+00
    outer loop
      vertex   1.000000e+00 0.000000e+00 -3.000000e+00
      vertex   1.000000e+00 8.000000e+01 -3.000000e+00
      vertex   2.500000e+00 8.000000e+01 -3.000000e+00
    endloop
  endfacet
  facet normal 0.000000e+00 -0.000000e+00 -1.000000e+00
    outer loop
      vertex   2.500000e+00 8.000000e+01 -3.000000e+00
      vertex   2.500000e+00 0.000000e+00 -3.000000e+00
      vertex   1.000000e+00 0.000000e+00 -3.000000e+00
    endloop
  endfacet
  facet normal -1.000000e+00 0.000000e+00 -7.228014e-17
    outer loop
      vertex   1.000000e+00 0.000000e+00 0.000000e+00
      vertex   1.000000e+00 8.000000e+01 0.000000e+00
      vertex   1.000000e+00 8.000000e+01 -3.000000e+00
    endloop
  endfacet
  facet normal -1.000000e+00 -0.000000e+00 -7.228014e-17
    outer loop
      vertex   1.000000e+00 8.000000e+01 -3.000000e+00
      vertex   1.000000e+00 0.000000e+00 -3.000000e+00
      vertex   1.000000e+00 0.000000e+00 0.000000e+00
    endloop
  endfacet
  facet normal 0.000000e+00 -0.000000e+00 -1.000000e+00
    outer loop
      vertex   1.000000e+00 8.000000e+01 0.000000e+00
      vertex   1.000000e+00 0.000000e+00 0.000000e+00
      vertex   0.000000e+00 0.000000e+00 0.000000e+00
    endloop
  endfacet
  facet normal 0.000000e+00 0.000000e+00 -1.000000e+00
    outer loop
      vertex   0.000000e+00 0.000000e+00 0.000000e+00
      vertex   0.000000e+00 8.000000e+01 0.000000e+00
      vertex   1.000000e+00 8.000000e+01 0.000000e+00
    endloop
  endfacet
  facet normal -0.000000e+00 1.000000e+00 0.000000e+00
    outer loop
      vertex   0.000000e+00 8.000000e+01 3.000000e+01
      vertex   2.500000e+00 8.000000e+01 3.000000e+01
      vertex   2.500000e+00 8.000000e+01 2.900000e+01
    endloop
  endfacet
  facet normal 0.000000e+00 1.000000e+00 0.000000e+00
    outer loop
      vertex   2.500000e+00 8.000000e+01 2.900000e+01
      vertex   1.250000e+00 8.000000e+01 2.900000e+01
      vertex   0.000000e+00 8.000000e+01 3.000000e+01
    endloop
  endfacet
  facet normal 0.000000e+00 1.000000e+00 0.000000e+00
    outer loop
      vertex   0.000000e+00 8.000000e+01 3.000000e+01
      vertex   1.250000e+00 8.000000e+01 2.900000e+01
      vertex   1.250000e+00 8.000000e+01 2.800000e+01
    endloop
  endfacet
  facet normal -0.000000e+00 1.000000e+00 0.000000e+00
    outer loop
      vertex   1.250000e+00 8.000000e+01 2.800000e+01
      vertex   2.500000e+00 8.000000e+01 2.800000e+01
      vertex   2.500000e+00 8.000000e+01 0.000000e+00
    endloop
  endfacet
  facet normal 0.000000e+00 1.000000e+00 0.000000e+00
    outer loop
      vertex   2.500000e+00 8.000000e+01 0.000000e+00
      vertex   1.750000e+00 8.000000e+01 0.000000e+00
      vertex   1.250000e+00 8.000000e+01 2.800000e+01
    endloop
  endfacet
  facet normal -0.000000e+00 1.000000e+00 0.000000e+00
    outer loop
      vertex   1.750000e+00 8.000000e+01 -2.500000e+00
      vertex   2.500000e+00 8.000000e+01 -2.500000e+00
      vertex   2.500000e+00 8.000000e+01 -3.000000e+00
    endloop
  endfacet
  facet normal 0.000000e+00 1.000000e+00 0.000000e+00
    outer loop
      vertex   2.500000e+00 8.000000e+01 -3.000000e+00
      vertex   1.000000e+00 8.000000e+01 -3.000000e+00
      vertex   1.750000e+00 8.000000e+01 -2.500000e+00
    endloop
  endfacet
  facet normal 0.000000e+00 1.000000e+00 0.000000e+00
    outer loop
      vertex   1.750000e+00 8.000000e+01 0.000000e+00
      vertex   1.750000e+00 8.000000e+01 -2.500000e+00
      vertex   1.000000e+00 8.000000e+01 -3.000000e+00
    endloop
  endfacet
  facet normal 0.000000e+00 1.000000e+00 -0.000000e+00
    outer loop
      vertex   1.000000e+00 8.000000e+01 -3.000000e+00
      vertex   1.000000e+00 8.000000e+01 0.000000e+00
      vertex   1.750000e+00 8.000000e+01 0.000000e+00
    endloop
  endfacet
  facet normal 0.000000e+00 1.000000e+00 0.000000e+00
    outer loop
      vertex   1.000000e+00 8.000000e+01 0.000000e+00
      vertex   1.250000e+00 8.000000e+01 2.800000e+01
      vertex   1.750000e+00 8.000000e+01 0.000000e+00
    endloop
  endfacet
  facet normal 0.000000e+00 1.000000e+00 -0.000000e+00
    outer loop
      vertex   1.000000e+00 8.000000e+01 0.000000e+00
      vertex   0.000000e+00 8.000000e+01 0.000000e+00
      vertex   1.250000e+00 8.000000e+01 2.800000e+01
    endloop
  endfacet
  facet normal 0.000000e+00 1.000000e+00 0.000000e+00
    outer loop
      vertex   1.250000e+00 8.000000e+01 2.800000e+01
      vertex   0.000000e+00 8.000000e+01 0.000000e+00
      vertex   0.000000e+00 8.000000e+01 3.000000e+01
    endloop
  endfacet
  facet normal 0.000000e+00 0.000000e+00 -1.000000e+00
    outer loop
      vertex   1.250000e+00 3.000000e+00 2.900000e+01
      vertex   1.250000e+00 8.000000e+01 2.900000e+01
      vertex   2.500000e+00 8.000000e+01 2.900000e+01
    endloop
  endfacet
  facet normal 0.000000e+00 -0.000000e+00 -1.000000e+00
    outer loop
      vertex   2.500000e+00 8.000000e+01 2.900000e+01
      vertex   2.500000e+00 3.000000e+00 2.900000e+01
      vertex   1.250000e+00 3.000000e+00 2.900000e+01
    endloop
  endfacet
  facet normal 1.000000e+00 5.632219e-18 -4.336809e-16
    outer loop
      vertex   2.500000e+00 3.000000e+00 2.900000e+01
      vertex   2.500000e+00 8.000000e+01 2.900000e+01
      vertex   2.500000e+00 8.000000e+01 3.000000e+01
    endloop
  endfacet
  facet normal 1.000000e+00 0.000000e+00 0.000000e+00
    outer loop
      vertex   2.500000e+00 8.000000e+01 3.000000e+01
      vertex   2.500000e+00 3.000000e+00 3.000000e+01
      vertex   2.500000e+00 3.000000e+00 2.900000e+01
    endloop
  endfacet
  facet normal 0.000000e+00 -1.000000e+00 0.000000e+00
    outer loop
      vertex   2.500000e+00 3.000000e+00 2.900000e+01
      vertex   2.500000e+00 3.000000e+00 3.000000e+01
      vertex   1.250000e+00 3.000000e+00 3.000000e+01
    endloop
  endfacet
  facet normal 0.000000e+00 -1.000000e+00 0.000000e+00
    outer loop
      vertex   1.250000e+00 3.000000e+00 3.000000e+01
      vertex   1.250000e+00 3.000000e+00 2.900000e+01
      vertex   2.500000e+00 3.000000e+00 2.900000e+01
    endloop
  endfacet
  facet normal 0.000000e+00 -1.000000e+00 0.000000e+00
    outer loop
      vertex   1.750000e+00 0.000000e+00 0.000000e+00
      vertex   2.500000e+00 0.000000e+00 0.000000e+00
      vertex   2.500000e+00 0.000000e+00 2.800000e+01
    endloop
  endfacet
  facet normal 0.000000e+00 -1.000000e+00 0.000000e+00
    outer loop
      vertex   1.000000e+00 0.000000e+00 -3.000000e+00
      vertex   2.500000e+00 0.000000e+00 -3.000000e+00
      vertex   2.500000e+00 0.000000e+00 -2.500000e+00
    endloop
  endfacet
  facet normal -0.000000e+00 -1.000000e+00 0.000000e+00
    outer loop
      vertex   2.500000e+00 0.000000e+00 -2.500000e+00
      vertex   1.750000e+00 0.000000e+00 -2.500000e+00
      vertex   1.000000e+00 0.000000e+00 -3.000000e+00
    endloop
  endfacet
  facet normal 0.000000e+00 -1.000000e+00 0.000000e+00
    outer loop
      vertex   1.000000e+00 0.000000e+00 0.000000e+00
      vertex   1.000000e+00 0.000000e+00 -3.000000e+00
      vertex   1.750000e+00 0.000000e+00 -2.500000e+00
    endloop
  endfacet
  facet normal 0.000000e+00 -1.000000e+00 0.000000e+00
    outer loop
      vertex   1.750000e+00 0.000000e+00 -2.500000e+00
      vertex   1.750000e+00 0.000000e+00 0.000000e+00
      vertex   1.000000e+00 0.000000e+00 0.000000e+00
    endloop
  endfacet
  facet normal 0.000000e+00 -1.000000e+00 0.000000e+00
    outer loop
      vertex   2.500000e+00 0.000000e+00 2.800000e+01
      vertex   1.000000e+00 0.000000e+00 0.000000e+00
      vertex   1.750000e+00 0.000000e+00 0.000000e+00
    endloop
  endfacet
  facet normal 0.000000e+00 -1.000000e+00 0.000000e+00
    outer loop
      vertex   0.000000e+00 0.000000e+00 0.000000e+00
      vertex   1.000000e+00 0.000000e+00 0.000000e+00
      vertex   2.500000e+00 0.000000e+00 2.800000e+01
    endloop
  endfacet
  facet normal -0.000000e+00 -1.000000e+00 0.000000e+00
    outer loop
      vertex   2.500000e+00 0.000000e+00 2.800000e+01
      vertex   1.250000e+00 0.000000e+00 2.800000e+01
      vertex   0.000000e+00 0.000000e+00 0.000000e+00
    endloop
  endfacet
  facet normal 0.000000e+00 -1.000000e+00 0.000000e+00
    outer loop
      vertex   0.000000e+00 0.000000e+00 3.000000e+01
      vertex   0.000000e+00 0.000000e+00 0.000000e+00
      vertex   1.250000e+00 0.000000e+00 2.800000e+01
    endloop
  endfacet
  facet normal 0.000000e+00 -1.000000e+00 0.000000e+00
    outer loop
      vertex   1.250000e+00 0.000000e+00 2.800000e+01
      vertex   1.250000e+00 0.000000e+00 2.900000e+01
      vertex   0.000000e+00 0.000000e+00 3.000000e+01
    endloop
  endfacet
  facet normal -0.000000e+00 -1.000000e+00 0.000000e+00
    outer loop
      vertex   2.500000e+00 0.000000e+00 3.000000e+01
      vertex   0.000000e+00 0.000000e+00 3.000000e+01
      vertex   1.250000e+00 0.000000e+00 2.900000e+01
    endloop
  endfacet
  facet normal 0.000000e+00 -1.000000e+00 0.000000e+00
    outer loop
      vertex   1.250000e+00 0.000000e+00 2.900000e+01
      vertex   2.500000e+00 0.000000e+00 2.900000e+01
      vertex   2.500000e+00 0.000000e+00 3.000000e+01
    endloop
  endfacet
  facet normal 1.000000e+00 0.000000e+00 0.000000e+00
    outer loop
      vertex   1.250000e+00 2.000000e+00 2.800000e+01
      vertex   1.250000e+00 2.000000e+00 0.000000e+00
      vertex   1.250000e+00 3.000000e+00 0.000000e+00
    endloop
  endfacet
  facet normal 1.000000e+00 0.000000e+00 -0.000000e+00
    outer loop
      vertex   1.250000e+00 3.000000e+00 0.000000e+00
      vertex   1.250000e+00 3.000000e+00 2.800000e+01
      vertex   1.250000e+00 2.000000e+00 2.800000e+01
    endloop
  endfacet
  facet normal 1.000000e+00 0.000000e+00 -0.000000e+00
    outer loop
      vertex   1.250000e+00 3.000000e+00 2.900000e+01
      vertex   1.250000e+00 3.000000e+00 3.000000e+01
      vertex   1.250000e+00 2.000000e+00 3.000000e+01
    endloop
  endfacet
  facet normal 1.000000e+00 0.000000e+00 0.000000e+00
    outer loop
      vertex   1.250000e+00 2.000000e+00 3.000000e+01
      vertex   1.250000e+00 2.000000e+00 2.900000e+01
      vertex   1.250000e+00 3.000000e+00 2.900000e+01
    endloop
  endfacet
  facet normal 1.000000e+00 0.000000e+00 0.000000e+00
    outer loop
      vertex   1.250000e+00 2.000000e+00 2.900000e+01
      vertex   1.250000e+00 0.000000e+00 2.900000e+01
      vertex   1.250000e+00 0.000000e+00 2.800000e+01
    endloop
  endfacet
  facet normal 1.000000e+00 0.000000e+00 0.000000e+00
    outer loop
      vertex   1.250000e+00 0.000000e+00 2.800000e+01
      vertex   1.250000e+00 2.000000e+00 2.800000e+01
      vertex   1.250000e+00 2.000000e+00 2.900000e+01
    endloop
  endfacet
  facet normal 1.000000e+00 0.000000e+00 0.000000e+00
    outer loop
      vertex   1.250000e+00 2.000000e+00 2.800000e+01
      vertex   1.250000e+00 3.000000e+00 2.900000e+01
      vertex   1.250000e+00 2.000000e+00 2.900000e+01
    endloop
  endfacet
  facet normal 1.000000e+00 0.000000e+00 0.000000e+00
    outer loop
      vertex   1.250000e+00 3.000000e+00 2.900000e+01
      vertex   1.250000e+00 2.000000e+00 2.800000e+01
      vertex   1.250000e+00 3.000000e+00 2.800000e+01
    endloop
  endfacet
  facet normal 1.000000e+00 0.000000e+00 0.000000e+00
    outer loop
      vertex   1.250000e+00 8.000000e+01 2.900000e+01
      vertex   1.250000e+00 3.000000e+00 2.900000e+01
      vertex   1.250000e+00 3.000000e+00 2.800000e+01
    endloop
  endfacet
  facet normal 1.000000e+00 0.000000e+00 0.000000e+00
    outer loop
      vertex   1.250000e+00 3.000000e+00 2.800000e+01
      vertex   1.250000e+00 8.000000e+01 2.800000e+01
      vertex   1.250000e+00 8.000000e+01 2.900000e+01
    endloop
  endfacet
  facet normal 0.000000e+00 0.000000e+00 1.000000e+00
    outer loop
      vertex   1.250000e+00 3.000000e+00 3.000000e+01
      vertex   2.500000e+00 3.000000e+00 3.000000e+01
      vertex   2.500000e+00 8.000000e+01 3.000000e+01
    endloop
  endfacet
  facet normal 0.000000e+00 0.000000e+00 1.000000e+00
    outer loop
      vertex   0.000000e+00 0.000000e+00 3.000000e+01
      vertex   2.500000e+00 0.000000e+00 3.000000e+01
      vertex   2.500000e+00 2.000000e+00 3.000000e+01
    endloop
  endfacet
  facet normal 0.000000e+00 0.000000e+00 1.000000e+00
    outer loop
      vertex   2.500000e+00 2.000000e+00 3.000000e+01
      vertex   1.250000e+00 2.000000e+00 3.000000e+01
      vertex   0.000000e+00 0.000000e+00 3.000000e+01
    endloop
  endfacet
  facet normal 0.000000e+00 0.000000e+00 1.000000e+00
    outer loop
      vertex   0.000000e+00 0.000000e+00 3.000000e+01
      vertex   1.250000e+00 2.000000e+00 3.000000e+01
      vertex   1.250000e+00 3.000000e+00 3.000000e+01
    endloop
  endfacet
  facet normal 0.000000e+00 0.000000e+00 1.000000e+00
    outer loop
      vertex   1.250000e+00 3.000000e+00 3.000000e+01
      vertex   0.000000e+00 8.000000e+01 3.000000e+01
      vertex   0.000000e+00 0.000000e+00 3.000000e+01
    endloop
  endfacet
  facet normal 0.000000e+00 0.000000e+00 1.000000e+00
    outer loop
      vertex   2.500000e+00 8.000000e+01 3.000000e+01
      vertex   0.000000e+00 8.000000e+01 3.000000e+01
      vertex   1.250000e+00 3.000000e+00 3.000000e+01
    endloop
  endfacet
  facet normal 1.000000e+00 0.000000e+00 -4.336809e-16
    outer loop
      vertex   2.500000e+00 2.000000e+00 2.900000e+01
      vertex   2.500000e+00 2.000000e+00 3.000000e+01
      vertex   2.500000e+00 0.000000e+00 3.000000e+01
    endloop
  endfacet
  facet normal 1.000000e+00 0.000000e+00 -4.336809e-16
    outer loop
      vertex   2.500000e+00 0.000000e+00 3.000000e+01
      vertex   2.500000e+00 0.000000e+00 2.900000e+01
      vertex   2.500000e+00 2.000000e+00 2.900000e+01
    endloop
  endfacet
  facet normal 0.000000e+00 -0.000000e+00 -1.000000e+00
    outer loop
      vertex   2.500000e+00 2.000000e+00 2.900000e+01
      vertex   2.500000e+00 0.000000e+00 2.900000e+01
      vertex   1.250000e+00 0.000000e+00 2.900000e+01
    endloop
  endfacet
  facet normal 0.000000e+00 0.000000e+00 -1.000000e+00
    outer loop
      vertex   1.250000e+00 0.000000e+00 2.900000e+01
      vertex   1.250000e+00 2.000000e+00 2.900000e+01
      vertex   2.500000e+00 2.000000e+00 2.900000e+01
    endloop
  endfacet
  facet normal 0.000000e+00 1.000000e+00 0.000000e+00
    outer loop
      vertex   1.250000e+00 2.000000e+00 2.900000e+01
      vertex   1.250000e+00 2.000000e+00 3.000000e+01
      vertex   2.500000e+00 2.000000e+00 3.000000e+01
    endloop
  endfacet
  facet normal 0.000000e+00 1.000000e+00 0.000000e+00
    outer loop
      vertex   2.500000e+00 2.000000e+00 3.000000e+01
      vertex   2.500000e+00 2.000000e+00 2.900000e+01
      vertex   1.250000e+00 2.000000e+00 2.900000e+01
    endloop
  endfacet
  facet normal -1.000000e+00 0.000000e+00 0.000000e+00
    outer loop
      vertex   0.000000e+00 2.500000e+01 2.000000e+01
      vertex   0.000000e+00 1.500000e+01 2.000000e+01
      vertex   0.000000e+00 0.000000e+00 3.000000e+01
    endloop
  endfacet
  facet normal -1.000000e+00 0.000000e+00 0.000000e+00
    outer loop
      vertex   0.000000e+00 6.000000e+01 1.600000e+01
      vertex   0.000000e+00 7.000000e+01 1.600000e+01
      vertex   0.000000e+00 8.000000e+01 0.000000e+00
    endloop
  endfacet
  facet normal -1.000000e+00 0.000000e+00 0.000000e+00
    outer loop
      vertex   0.000000e+00 0.000000e+00 0.000000e+00
      vertex   0.000000e+00 0.000000e+00 3.000000e+01
      vertex   0.000000e+00 1.500000e+01 2.000000e+01
    endloop
  endfacet
  facet normal -1.000000e+00 0.000000e+00 -0.000000e+00
    outer loop
      vertex   0.000000e+00 1.500000e+01 2.000000e+01
      vertex   0.000000e+00 1.500000e+01 1.600000e+01
      vertex   0.000000e+00 0.000000e+00 0.000000e+00
    endloop
  endfacet
  facet normal -1.000000e+00 0.000000e+00 0.000000e+00
    outer loop
      vertex   0.000000e+00 0.000000e+00 0.000000e+00
      vertex   0.000000e+00 1.500000e+01 1.600000e+01
      vertex   0.000000e+00 2.500000e+01 1.600000e+01
    endloop
  endfacet
  facet normal -1.000000e+00 0.000000e+00 -0.000000e+00
    outer loop
      vertex   0.000000e+00 8.000000e+01 3.000000e+01
      vertex   0.000000e+00 8.000000e+01 0.000000e+00
      vertex   0.000000e+00 7.000000e+01 1.600000e+01
    endloop
  endfacet
  facet normal -1.000000e+00 0.000000e+00 0.000000e+00
    outer loop
      vertex   0.000000e+00 7.000000e+01 1.600000e+01
      vertex   0.000000e+00 7.000000e+01 2.000000e+01
      vertex   0.000000e+00 8.000000e+01 3.000000e+01
    endloop
  endfacet
  facet normal -1.000000e+00 0.000000e+00 0.000000e+00
    outer loop
      vertex   0.000000e+00 8.000000e+01 3.000000e+01
      vertex   0.000000e+00 7.000000e+01 2.000000e+01
      vertex   0.000000e+00 6.000000e+01 2.000000e+01
    endloop
  endfacet
  facet normal -1.000000e+00 0.000000e+00 0.000000e+00
    outer loop
      vertex   0.000000e+00 8.000000e+01 0.000000e+00
      vertex   0.000000e+00 0.000000e+00 0.000000e+00
      vertex   0.000000e+00 6.000000e+01 1.600000e+01
    endloop
  endfacet
  facet normal -1.000000e+00 0.000000e+00 -0.000000e+00
    outer loop
      vertex   0.000000e+00 2.500000e+01 1.600000e+01
      vertex   0.000000e+00 6.000000e+01 1.600000e+01
      vertex   0.000000e+00 0.000000e+00 0.000000e+00
    endloop
  endfacet
  facet normal -1.000000e+00 0.000000e+00 0.000000e+00
    outer loop
      vertex   0.000000e+00 6.000000e+01 2.000000e+01
      vertex   0.000000e+00 6.000000e+01 1.600000e+01
      vertex   0.000000e+00 2.500000e+01 1.600000e+01
    endloop
  endfacet
  facet normal -1.000000e+00 0.000000e+00 0.000000e+00
    outer loop
      vertex   0.000000e+00 2.500000e+01 1.600000e+01
      vertex   0.000000e+00 2.500000e+01 2.000000e+01
      vertex   0.000000e+00 6.000000e+01 2.000000e+01
    endloop
  endfacet
  facet normal -1.000000e+00 0.000000e+00 0.000000e+00
    outer loop
      vertex   0.000000e+00 6.000000e+01 2.000000e+01
      vertex   0.000000e+00 2.500000e+01 2.000000e+01
      vertex   0.000000e+00 8.000000e+01 3.000000e+01
    endloop
  endfacet
  facet normal -1.000000e+00 0.000000e+00 0.000000e+00
    outer loop
      vertex   0.000000e+00 0.000000e+00 3.000000e+01
      vertex   0.000000e+00 8.000000e+01 3.000000e+01
      vertex   0.000000e+00 2.500000e+01 2.000000e+01
    endloop
  endfacet
  facet normal 0.000000e+00 0.000000e+00 1.000000e+00
    outer loop
      vertex   0.000000e+00 7.000000e+01 2.000000e+01
      vertex   -5.000000e+00 7.000000e+01 2.000000e+01
      vertex   -5.000000e+00 6.000000e+01 2.000000e+01
    endloop
  endfacet
  facet normal 0.000000e+00 0.000000e+00 1.000000e+00
    outer loop
      vertex   -5.000000e+00 6.000000e+01 2.000000e+01
      vertex   0.000000e+00 6.000000e+01 2.000000e+01
      vertex   0.000000e+00 7.000000e+01 2.000000e+01
    endloop
  endfacet
  facet normal 0.000000e+00 0.000000e+00 -1.000000e+00
    outer loop
      vertex   -3.000000e+00 7.000000e+01 1.600000e+01
      vertex   0.000000e+00 7.000000e+01 1.600000e+01
      vertex   0.000000e+00 6.000000e+01 1.600000e+01
    endloop
  endfacet
  facet normal 1.156482e-15 3.469447e-16 -1.000000e+00
    outer loop
      vertex   0.000000e+00 6.000000e+01 1.600000e+01
      vertex   -3.000000e+00 6.000000e+01 1.600000e+01
      vertex   -3.000000e+00 7.000000e+01 1.600000e+01
    endloop
  endfacet
  facet normal -4.012354e-30 -1.000000e+00 3.469447e-15
    outer loop
      vertex   -3.000000e+00 6.000000e+01 1.600000e+01
      vertex   0.000000e+00 6.000000e+01 1.600000e+01
      vertex   0.000000e+00 6.000000e+01 2.000000e+01
    endloop
  endfacet
  facet normal 0.000000e+00 -1.000000e+00 3.469447e-15
    outer loop
      vertex   0.000000e+00 6.000000e+01 2.000000e+01
      vertex   -5.000000e+00 6.000000e+01 2.000000e+01
      vertex   -3.000000e+00 6.000000e+01 1.600000e+01
    endloop
  endfacet
  facet normal -6.938894e-15 -1.000000e+00 0.000000e+00
    outer loop
      vertex   -3.000000e+00 6.000000e+01 6.000000e+00
      vertex   -3.000000e+00 6.000000e+01 1.600000e+01
      vertex   -5.000000e+00 6.000000e+01 2.000000e+01
    endloop
  endfacet
  facet normal 0.000000e+00 -1.000000e+00 9.912706e-16
    outer loop
      vertex   -5.000000e+00 6.000000e+01 2.000000e+01
      vertex   -5.000000e+00 6.000000e+01 6.000000e+00
      vertex   -3.000000e+00 6.000000e+01 6.000000e+00
    endloop
  endfacet
  facet normal 6.938894e-15 1.000000e+00 -1.387779e-15
    outer loop
      vertex   -3.000000e+00 7.000000e+01 1.600000e+01
      vertex   -3.000000e+00 7.000000e+01 6.000000e+00
      vertex   -5.000000e+00 7.000000e+01 6.000000e+00
    endloop
  endfacet
  facet normal 0.000000e+00 1.000000e+00 -0.000000e+00
    outer loop
      vertex   -5.000000e+00 7.000000e+01 6.000000e+00
      vertex   -5.000000e+00 7.000000e+01 2.000000e+01
      vertex   -3.000000e+00 7.000000e+01 1.600000e+01
    endloop
  endfacet
  facet normal 0.000000e+00 1.000000e+00 0.000000e+00
    outer loop
      vertex   0.000000e+00 7.000000e+01 1.600000e+01
      vertex   -3.000000e+00 7.000000e+01 1.600000e+01
      vertex   -5.000000e+00 7.000000e+01 2.000000e+01
    endloop
  endfacet
  facet normal -0.000000e+00 1.000000e+00 0.000000e+00
    outer loop
      vertex   -5.000000e+00 7.000000e+01 2.000000e+01
      vertex   0.000000e+00 7.000000e+01 2.000000e+01
      vertex   0.000000e+00 7.000000e+01 1.600000e+01
    endloop
  endfacet
  facet normal -1.000000e+00 8.673617e-17 -6.195441e-17
    outer loop
      vertex   -5.000000e+00 7.000000e+01 2.000000e+01
      vertex   -5.000000e+00 7.000000e+01 6.000000e+00
      vertex   -5.000000e+00 6.000000e+01 6.000000e+00
    endloop
  endfacet
  facet normal -1.000000e+00 0.000000e+00 0.000000e+00
    outer loop
      vertex   -5.000000e+00 6.000000e+01 6.000000e+00
      vertex   -5.000000e+00 6.000000e+01 2.000000e+01
      vertex   -5.000000e+00 7.000000e+01 2.000000e+01
    endloop
  endfacet
  facet normal 1.000000e+00 -4.336809e-17 0.000000e+00
    outer loop
      vertex   -3.000000e+00 6.000000e+01 1.600000e+01
      vertex   -3.000000e+00 6.000000e+01 6.000000e+00
      vertex   -3.000000e+00 7.000000e+01 6.000000e+00
    endloop
  endfacet
  facet normal 1.000000e+00 -1.743153e-32 4.336809e-17
    outer loop
      vertex   -3.000000e+00 7.000000e+01 6.000000e+00
      vertex   -3.000000e+00 7.000000e+01 1.600000e+01
      vertex   -3.000000e+00 6.000000e+01 1.600000e+01
    endloop
  endfacet
  facet normal 0.000000e+00 0.000000e+00 -1.000000e+00
    outer loop
      vertex   -3.000000e+00 7.000000e+01 6.000000e+00
      vertex   -3.000000e+00 6.000000e+01 6.000000e+00
      vertex   -5.000000e+00 6.000000e+01 6.000000e+00
    endloop
  endfacet
  facet normal 0.000000e+00 0.000000e+00 -1.000000e+00
    outer loop
      vertex   -5.000000e+00 6.000000e+01 6.000000e+00
      vertex   -5.000000e+00 7.000000e+01 6.000000e+00
      vertex   -3.000000e+00 7.000000e+01 6.000000e+00
    endloop
  endfacet
  facet normal 0.000000e+00 3.469447e-16 -1.000000e+00
    outer loop
      vertex   -3.000000e+00 1.500000e+01 1.600000e+01
      vertex   -3.000000e+00 2.500000e+01 1.600000e+01
      vertex   0.000000e+00 2.500000e+01 1.600000e+01
    endloop
  endfacet
  facet normal 1.156482e-15 0.000000e+00 -1.000000e+00
    outer loop
      vertex   0.000000e+00 2.500000e+01 1.600000e+01
      vertex   0.000000e+00 1.500000e+01 1.600000e+01
      vertex   -3.000000e+00 1.500000e+01 1.600000e+01
    endloop
  endfacet
  facet normal 0.000000e+00 0.000000e+00 1.000000e+00
    outer loop
      vertex   0.000000e+00 2.500000e+01 2.000000e+01
      vertex   -5.000000e+00 2.500000e+01 2.000000e+01
      vertex   -5.000000e+00 1.500000e+01 2.000000e+01
    endloop
  endfacet
  facet normal 0.000000e+00 0.000000e+00 1.000000e+00
    outer loop
      vertex   -5.000000e+00 1.500000e+01 2.000000e+01
      vertex   0.000000e+00 1.500000e+01 2.000000e+01
      vertex   0.000000e+00 2.500000e+01 2.000000e+01
    endloop
  endfacet
  facet normal 0.000000e+00 1.000000e+00 0.000000e+00
    outer loop
      vertex   -3.000000e+00 2.500000e+01 1.600000e+01
      vertex   -3.000000e+00 2.500000e+01 6.000000e+00
      vertex   -5.000000e+00 2.500000e+01 6.000000e+00
    endloop
  endfacet
  facet normal 0.000000e+00 1.000000e+00 0.000000e+00
    outer loop
      vertex   -5.000000e+00 2.500000e+01 6.000000e+00
      vertex   -5.000000e+00 2.500000e+01 2.000000e+01
      vertex   -3.000000e+00 2.500000e+01 1.600000e+01
    endloop
  endfacet
  facet normal 0.000000e+00 1.000000e+00 0.000000e+00
    outer loop
      vertex   0.000000e+00 2.500000e+01 1.600000e+01
      vertex   -3.000000e+00 2.500000e+01 1.600000e+01
      vertex   -5.000000e+00 2.500000e+01 2.000000e+01
    endloop
  endfacet
  facet normal -0.000000e+00 1.000000e+00 0.000000e+00
    outer loop
      vertex   -5.000000e+00 2.500000e+01 2.000000e+01
      vertex   0.000000e+00 2.500000e+01 2.000000e+01
      vertex   0.000000e+00 2.500000e+01 1.600000e+01
    endloop
  endfacet
  facet normal 0.000000e+00 -1.000000e+00 0.000000e+00
    outer loop
      vertex   -3.000000e+00 1.500000e+01 1.600000e+01
      vertex   0.000000e+00 1.500000e+01 1.600000e+01
      vertex   0.000000e+00 1.500000e+01 2.000000e+01
    endloop
  endfacet
  facet normal -0.000000e+00 -1.000000e+00 0.000000e+00
    outer loop
      vertex   0.000000e+00 1.500000e+01 2.000000e+01
      vertex   -5.000000e+00 1.500000e+01 2.000000e+01
      vertex   -3.000000e+00 1.500000e+01 1.600000e+01
    endloop
  endfacet
  facet normal 0.000000e+00 -1.000000e+00 0.000000e+00
    outer loop
      vertex   -3.000000e+00 1.500000e+01 6.000000e+00
      vertex   -3.000000e+00 1.500000e+01 1.600000e+01
      vertex   -5.000000e+00 1.500000e+01 2.000000e+01
    endloop
  endfacet
  facet normal 0.000000e+00 -1.000000e+00 0.000000e+00
    outer loop
      vertex   -5.000000e+00 1.500000e+01 2.000000e+01
      vertex   -5.000000e+00 1.500000e+01 6.000000e+00
      vertex   -3.000000e+00 1.500000e+01 6.000000e+00
    endloop
  endfacet
  facet normal -1.000000e+00 0.000000e+00 -0.000000e+00
    outer loop
      vertex   -5.000000e+00 2.500000e+01 2.000000e+01
      vertex   -5.000000e+00 2.500000e+01 6.000000e+00
      vertex   -5.000000e+00 1.500000e+01 6.000000e+00
    endloop
  endfacet
  facet normal -1.000000e+00 0.000000e+00 0.000000e+00
    outer loop
      vertex   -5.000000e+00 1.500000e+01 6.000000e+00
      vertex   -5.000000e+00 1.500000e+01 2.000000e+01
      vertex   -5.000000e+00 2.500000e+01 2.000000e+01
    endloop
  endfacet
  facet normal 1.000000e+00 0.000000e+00 0.000000e+00
    outer loop
      vertex   -3.000000e+00 1.500000e+01 1.600000e+01
      vertex   -3.000000e+00 1.500000e+01 6.000000e+00
      vertex   -3.000000e+00 2.500000e+01 6.000000e+00
    endloop
  endfacet
  facet normal 1.000000e+00 0.000000e+00 -0.000000e+00
    outer loop
      vertex   -3.000000e+00 2.500000e+01 6.000000e+00
      vertex   -3.000000e+00 2.500000e+01 1.600000e+01
      vertex   -3.000000e+00 1.500000e+01 1.600000e+01
    endloop
  endfacet
  facet normal 0.000000e+00 -0.000000e+00 -1.000000e+00
    outer loop
      vertex   -3.000000e+00 2.500000e+01 6.000000e+00
      vertex   -3.000000e+00 1.500000e+01 6.000000e+00
      vertex   -5.000000e+00 1.500000e+01 6.000000e+00
    endloop
  endfacet
  facet normal 0.000000e+00 0.000000e+00 -1.000000e+00
    outer loop
      vertex   -5.000000e+00 1.500000e+01 6.000000e+00
      vertex   -5.000000e+00 2.500000e+01 6.000000e+00
      vertex   -3.000000e+00 2.500000e+01 6.000000e+00
    endloop
  endfacet
endsolid
