solid ascii
  facet normal -1.000000e+00 5.632219e-18 -2.168404e-16
    outer loop
      vertex   -2.168404e-16 3.000000e+00 2.900000e+01
      vertex   -4.336809e-16 3.000000e+00 3.000000e+01
      vertex   0.000000e+00 8.000000e+01 3.000000e+01
    endloop
  endfacet
  facet normal -1.000000e+00 0.000000e+00 2.168404e-16
    outer loop
      vertex   0.000000e+00 8.000000e+01 3.000000e+01
      vertex   -2.168404e-16 8.000000e+01 2.900000e+01
      vertex   -2.168404e-16 3.000000e+00 2.900000e+01
    endloop
  endfacet
  facet normal 0.000000e+00 0.000000e+00 -1.000000e+00
    outer loop
      vertex   -2.168404e-16 3.000000e+00 2.900000e+01
      vertex   -2.168404e-16 8.000000e+01 2.900000e+01
      vertex   1.250000e+00 8.000000e+01 2.900000e+01
    endloop
  endfacet
  facet normal 0.000000e+00 -0.000000e+00 -1.000000e+00
    outer loop
      vertex   1.250000e+00 8.000000e+01 2.900000e+01
      vertex   1.250000e+00 3.000000e+00 2.900000e+01
      vertex   -2.168404e-16 3.000000e+00 2.900000e+01
    endloop
  endfacet
  facet normal 0.000000e+00 -1.000000e+00 0.000000e+00
    outer loop
      vertex   1.250000e+00 3.000000e+00 2.900000e+01
      vertex   1.250000e+00 3.000000e+00 3.000000e+01
      vertex   -4.336809e-16 3.000000e+00 3.000000e+01
    endloop
  endfacet
  facet normal 0.000000e+00 -1.000000e+00 0.000000e+00
    outer loop
      vertex   -4.336809e-16 3.000000e+00 3.000000e+01
      vertex   -2.168404e-16 3.000000e+00 2.900000e+01
      vertex   1.250000e+00 3.000000e+00 2.900000e+01
    endloop
  endfacet
  facet normal 0.000000e+00 0.000000e+00 1.000000e+00
    outer loop
      vertex   1.250000e+00 2.000000e+00 3.000000e+01
      vertex   -4.336809e-16 2.000000e+00 3.000000e+01
      vertex   0.000000e+00 0.000000e+00 3.000000e+01
    endloop
  endfacet
  facet normal 0.000000e+00 0.000000e+00 1.000000e+00
    outer loop
      vertex   0.000000e+00 0.000000e+00 3.000000e+01
      vertex   2.500000e+00 0.000000e+00 3.000000e+01
      vertex   1.250000e+00 2.000000e+00 3.000000e+01
    endloop
  endfacet
  facet normal 0.000000e+00 0.000000e+00 1.000000e+00
    outer loop
      vertex   1.250000e+00 3.000000e+00 3.000000e+01
      vertex   1.250000e+00 2.000000e+00 3.000000e+01
      vertex   2.500000e+00 0.000000e+00 3.000000e+01
    endloop
  endfacet
  facet normal 0.000000e+00 -0.000000e+00 1.000000e+00
    outer loop
      vertex   2.500000e+00 0.000000e+00 3.000000e+01
      vertex   2.500000e+00 8.000000e+01 3.000000e+01
      vertex   1.250000e+00 3.000000e+00 3.000000e+01
    endloop
  endfacet
  facet normal 0.000000e+00 0.000000e+00 1.000000e+00
    outer loop
      vertex   -4.336809e-16 3.000000e+00 3.000000e+01
      vertex   1.250000e+00 3.000000e+00 3.000000e+01
      vertex   2.500000e+00 8.000000e+01 3.000000e+01
    endloop
  endfacet
  facet normal 0.000000e+00 0.000000e+00 1.000000e+00
    outer loop
      vertex   2.500000e+00 8.000000e+01 3.000000e+01
      vertex   0.000000e+00 8.000000e+01 3.000000e+01
      vertex   -4.336809e-16 3.000000e+00 3.000000e+01
    endloop
  endfacet
  facet normal -1.000000e+00 -2.168404e-16 0.000000e+00
    outer loop
      vertex   -4.336809e-16 2.000000e+00 2.900000e+01
      vertex   0.000000e+00 0.000000e+00 2.900000e+01
      vertex   0.000000e+00 0.000000e+00 3.000000e+01
    endloop
  endfacet
  facet normal -1.000000e+00 -2.168404e-16 0.000000e+00
    outer loop
      vertex   0.000000e+00 0.000000e+00 3.000000e+01
      vertex   -4.336809e-16 2.000000e+00 3.000000e+01
      vertex   -4.336809e-16 2.000000e+00 2.900000e+01
    endloop
  endfacet
  facet normal 0.000000e+00 -0.000000e+00 -1.000000e+00
    outer loop
      vertex   1.250000e+00 2.000000e+00 2.900000e+01
      vertex   1.250000e+00 0.000000e+00 2.900000e+01
      vertex   0.000000e+00 0.000000e+00 2.900000e+01
    endloop
  endfacet
  facet normal 0.000000e+00 0.000000e+00 -1.000000e+00
    outer loop
      vertex   0.000000e+00 0.000000e+00 2.900000e+01
      vertex   -4.336809e-16 2.000000e+00 2.900000e+01
      vertex   1.250000e+00 2.000000e+00 2.900000e+01
    endloop
  endfacet
  facet normal 0.000000e+00 1.000000e+00 0.000000e+00
    outer loop
      vertex   -4.336809e-16 2.000000e+00 2.900000e+01
      vertex   -4.336809e-16 2.000000e+00 3.000000e+01
      vertex   1.250000e+00 2.000000e+00 3.000000e+01
    endloop
  endfacet
  facet normal 0.000000e+00 1.000000e+00 0.000000e+00
    outer loop
      vertex   1.250000e+00 2.000000e+00 3.000000e+01
      vertex   1.250000e+00 2.000000e+00 2.900000e+01
      vertex   -4.336809e-16 2.000000e+00 2.900000e+01
    endloop
  endfacet
  facet normal -1.000000e+00 0.000000e+00 0.000000e+00
    outer loop
      vertex   1.250000e+00 2.000000e+00 2.900000e+01
      vertex   1.250000e+00 2.000000e+00 3.000000e+01
      vertex   1.250000e+00 3.000000e+00 3.000000e+01
    endloop
  endfacet
  facet normal -1.000000e+00 0.000000e+00 -0.000000e+00
    outer loop
      vertex   1.250000e+00 3.000000e+00 3.000000e+01
      vertex   1.250000e+00 3.000000e+00 2.900000e+01
      vertex   1.250000e+00 2.000000e+00 2.900000e+01
    endloop
  endfacet
  facet normal -1.000000e+00 0.000000e+00 -7.744301e-18
    outer loop
      vertex   1.250000e+00 3.000000e+00 2.800000e+01
      vertex   1.250000e+00 3.000000e+00 0.000000e+00
      vertex   1.250000e+00 2.000000e+00 0.000000e+00
    endloop
  endfacet
  facet normal -1.000000e+00 -2.168404e-16 0.000000e+00
    outer loop
      vertex   1.250000e+00 2.000000e+00 0.000000e+00
      vertex   1.250000e+00 2.000000e+00 2.800000e+01
      vertex   1.250000e+00 3.000000e+00 2.800000e+01
    endloop
  endfacet
  facet normal -1.000000e+00 1.084202e-16 2.168404e-16
    outer loop
      vertex   1.250000e+00 2.000000e+00 2.800000e+01
      vertex   1.250000e+00 0.000000e+00 2.800000e+01
      vertex   1.250000e+00 0.000000e+00 2.900000e+01
    endloop
  endfacet
  facet normal -1.000000e+00 0.000000e+00 0.000000e+00
    outer loop
      vertex   1.250000e+00 0.000000e+00 2.900000e+01
      vertex   1.250000e+00 2.000000e+00 2.900000e+01
      vertex   1.250000e+00 2.000000e+00 2.800000e+01
    endloop
  endfacet
  facet normal -1.000000e+00 -2.168404e-16 -0.000000e+00
    outer loop
      vertex   1.250000e+00 2.000000e+00 2.900000e+01
      vertex   1.250000e+00 3.000000e+00 2.800000e+01
      vertex   1.250000e+00 2.000000e+00 2.800000e+01
    endloop
  endfacet
  facet normal -1.000000e+00 0.000000e+00 2.168404e-16
    outer loop
      vertex   1.250000e+00 3.000000e+00 2.800000e+01
      vertex   1.250000e+00 2.000000e+00 2.900000e+01
      vertex   1.250000e+00 3.000000e+00 2.900000e+01
    endloop
  endfacet
  facet normal -1.000000e+00 0.000000e+00 2.168404e-16
    outer loop
      vertex   1.250000e+00 8.000000e+01 2.800000e+01
      vertex   1.250000e+00 3.000000e+00 2.800000e+01
      vertex   1.250000e+00 3.000000e+00 2.900000e+01
    endloop
  endfacet
  facet normal -1.000000e+00 0.000000e+00 2.168404e-16
    outer loop
      vertex   1.250000e+00 3.000000e+00 2.900000e+01
      vertex   1.250000e+00 8.000000e+01 2.900000e+01
      vertex   1.250000e+00 8.000000e+01 2.800000e+01
    endloop
  endfacet
  facet normal 0.000000e+00 0.000000e+00 1.000000e+00
    outer loop
      vertex   -4.336809e-16 2.000000e+00 2.800000e+01
      vertex   0.000000e+00 0.000000e+00 2.800000e+01
      vertex   1.250000e+00 0.000000e+00 2.800000e+01
    endloop
  endfacet
  facet normal 0.000000e+00 -0.000000e+00 1.000000e+00
    outer loop
      vertex   1.250000e+00 0.000000e+00 2.800000e+01
      vertex   1.250000e+00 2.000000e+00 2.800000e+01
      vertex   -4.336809e-16 2.000000e+00 2.800000e+01
    endloop
  endfacet
  facet normal 0.000000e+00 1.000000e+00 0.000000e+00
    outer loop
      vertex   7.500000e-01 2.000000e+00 0.000000e+00
      vertex   -4.336809e-16 2.000000e+00 0.000000e+00
      vertex   -4.336809e-16 2.000000e+00 2.800000e+01
    endloop
  endfacet
  facet normal -0.000000e+00 1.000000e+00 0.000000e+00
    outer loop
      vertex   -4.336809e-16 2.000000e+00 2.800000e+01
      vertex   1.250000e+00 2.000000e+00 2.800000e+01
      vertex   7.500000e-01 2.000000e+00 0.000000e+00
    endloop
  endfacet
  facet normal 0.000000e+00 1.000000e+00 0.000000e+00
    outer loop
      vertex   1.250000e+00 2.000000e+00 2.800000e+01
      vertex   1.250000e+00 2.000000e+00 0.000000e+00
      vertex   7.500000e-01 2.000000e+00 0.000000e+00
    endloop
  endfacet
  facet normal -1.000000e+00 -2.168404e-16 3.089339e-33
    outer loop
      vertex   -4.336809e-16 2.000000e+00 0.000000e+00
      vertex   0.000000e+00 0.000000e+00 0.000000e+00
      vertex   0.000000e+00 0.000000e+00 2.800000e+01
    endloop
  endfacet
  facet normal -1.000000e+00 -2.168404e-16 3.089339e-33
    outer loop
      vertex   0.000000e+00 0.000000e+00 2.800000e+01
      vertex   -4.336809e-16 2.000000e+00 2.800000e+01
      vertex   -4.336809e-16 2.000000e+00 0.000000e+00
    endloop
  endfacet
  facet normal 0.000000e+00 -0.000000e+00 -1.000000e+00
    outer loop
      vertex   7.500000e-01 2.000000e+00 0.000000e+00
      vertex   7.500000e-01 0.000000e+00 0.000000e+00
      vertex   0.000000e+00 0.000000e+00 0.000000e+00
    endloop
  endfacet
  facet normal 0.000000e+00 0.000000e+00 -1.000000e+00
    outer loop
      vertex   0.000000e+00 0.000000e+00 0.000000e+00
      vertex   -4.336809e-16 2.000000e+00 0.000000e+00
      vertex   7.500000e-01 2.000000e+00 0.000000e+00
    endloop
  endfacet
  facet normal 0.000000e+00 0.000000e+00 1.000000e+00
    outer loop
      vertex   7.500000e-01 2.000000e+00 0.000000e+00
      vertex   1.250000e+00 2.000000e+00 0.000000e+00
      vertex   1.250000e+00 3.000000e+00 0.000000e+00
    endloop
  endfacet
  facet normal 0.000000e+00 0.000000e+00 1.000000e+00
    outer loop
      vertex   1.250000e+00 3.000000e+00 0.000000e+00
      vertex   7.500000e-01 3.000000e+00 0.000000e+00
      vertex   7.500000e-01 2.000000e+00 0.000000e+00
    endloop
  endfacet
  facet normal 0.000000e+00 -0.000000e+00 1.000000e+00
    outer loop
      vertex   1.250000e+00 3.000000e+00 2.800000e+01
      vertex   1.250000e+00 8.000000e+01 2.800000e+01
      vertex   0.000000e+00 8.000000e+01 2.800000e+01
    endloop
  endfacet
  facet normal 0.000000e+00 0.000000e+00 1.000000e+00
    outer loop
      vertex   0.000000e+00 8.000000e+01 2.800000e+01
      vertex   -4.336809e-16 3.000000e+00 2.800000e+01
      vertex   1.250000e+00 3.000000e+00 2.800000e+01
    endloop
  endfacet
  facet normal 0.000000e+00 -1.000000e+00 0.000000e+00
    outer loop
      vertex   7.500000e-01 3.000000e+00 0.000000e+00
      vertex   1.250000e+00 3.000000e+00 0.000000e+00
      vertex   1.250000e+00 3.000000e+00 2.800000e+01
    endloop
  endfacet
  facet normal 0.000000e+00 -1.000000e+00 0.000000e+00
    outer loop
      vertex   7.500000e-01 3.000000e+00 0.000000e+00
      vertex   1.250000e+00 3.000000e+00 2.800000e+01
      vertex   -4.336809e-16 3.000000e+00 2.800000e+01
    endloop
  endfacet
  facet normal 0.000000e+00 -1.000000e+00 0.000000e+00
    outer loop
      vertex   -4.336809e-16 3.000000e+00 2.800000e+01
      vertex   -4.336809e-16 3.000000e+00 0.000000e+00
      vertex   7.500000e-01 3.000000e+00 0.000000e+00
    endloop
  endfacet
  facet normal 0.000000e+00 0.000000e+00 -1.000000e+00
    outer loop
      vertex   -4.336809e-16 3.000000e+00 0.000000e+00
      vertex   0.000000e+00 8.000000e+01 0.000000e+00
      vertex   7.500000e-01 8.000000e+01 0.000000e+00
    endloop
  endfacet
  facet normal 0.000000e+00 -0.000000e+00 -1.000000e+00
    outer loop
      vertex   7.500000e-01 8.000000e+01 0.000000e+00
      vertex   7.500000e-01 3.000000e+00 0.000000e+00
      vertex   -4.336809e-16 3.000000e+00 0.000000e+00
    endloop
  endfacet
  facet normal -1.000000e+00 0.000000e+00 0.000000e+00
    outer loop
      vertex   7.500000e-01 3.000000e+00 0.000000e+00
      vertex   7.500000e-01 8.000000e+01 0.000000e+00
      vertex   7.500000e-01 8.000000e+01 -2.500000e+00
    endloop
  endfacet
  facet normal -1.000000e+00 0.000000e+00 0.000000e+00
    outer loop
      vertex   7.500000e-01 8.000000e+01 -2.500000e+00
      vertex   7.500000e-01 0.000000e+00 -2.500000e+00
      vertex   7.500000e-01 3.000000e+00 0.000000e+00
    endloop
  endfacet
  facet normal -1.000000e+00 0.000000e+00 0.000000e+00
    outer loop
      vertex   7.500000e-01 0.000000e+00 -2.500000e+00
      vertex   7.500000e-01 2.000000e+00 0.000000e+00
      vertex   7.500000e-01 3.000000e+00 0.000000e+00
    endloop
  endfacet
  facet normal -1.000000e+00 0.000000e+00 0.000000e+00
    outer loop
      vertex   7.500000e-01 0.000000e+00 -2.500000e+00
      vertex   7.500000e-01 0.000000e+00 0.000000e+00
      vertex   7.500000e-01 2.000000e+00 0.000000e+00
    endloop
  endfacet
  facet normal 0.000000e+00 -0.000000e+00 1.000000e+00
    outer loop
      vertex   7.500000e-01 0.000000e+00 -2.500000e+00
      vertex   7.500000e-01 8.000000e+01 -2.500000e+00
      vertex   0.000000e+00 8.000000e+01 -2.500000e+00
    endloop
  endfacet
  facet normal 0.000000e+00 0.000000e+00 1.000000e+00
    outer loop
      vertex   0.000000e+00 8.000000e+01 -2.500000e+00
      vertex   0.000000e+00 0.000000e+00 -2.500000e+00
      vertex   7.500000e-01 0.000000e+00 -2.500000e+00
    endloop
  endfacet
  facet normal -1.000000e+00 0.000000e+00 -8.673617e-16
    outer loop
      vertex   0.000000e+00 0.000000e+00 -2.500000e+00
      vertex   0.000000e+00 8.000000e+01 -2.500000e+00
      vertex   4.336809e-16 8.000000e+01 -3.000000e+00
    endloop
  endfacet
  facet normal -1.000000e+00 -0.000000e+00 -8.673617e-16
    outer loop
      vertex   4.336809e-16 8.000000e+01 -3.000000e+00
      vertex   4.336809e-16 0.000000e+00 -3.000000e+00
      vertex   0.000000e+00 0.000000e+00 -2.500000e+00
    endloop
  endfacet
  facet normal 0.000000e+00 0.000000e+00 -1.000000e+00
    outer loop
      vertex   4.336809e-16 0.000000e+00 -3.000000e+00
      vertex   4.336809e-16 8.000000e+01 -3.000000e+00
      vertex   1.500000e+00 8.000000e+01 -3.000000e+00
    endloop
  endfacet
  facet normal 0.000000e+00 -0.000000e+00 -1.000000e+00
    outer loop
      vertex   1.500000e+00 8.000000e+01 -3.000000e+00
      vertex   1.500000e+00 0.000000e+00 -3.000000e+00
      vertex   4.336809e-16 0.000000e+00 -3.000000e+00
    endloop
  endfacet
  facet normal 0.000000e+00 1.000000e+00 0.000000e+00
    outer loop
      vertex   7.500000e-01 8.000000e+01 0.000000e+00
      vertex   0.000000e+00 8.000000e+01 0.000000e+00
      vertex   0.000000e+00 8.000000e+01 2.800000e+01
    endloop
  endfacet
  facet normal 0.000000e+00 1.000000e+00 0.000000e+00
    outer loop
      vertex   1.500000e+00 8.000000e+01 -3.000000e+00
      vertex   4.336809e-16 8.000000e+01 -3.000000e+00
      vertex   0.000000e+00 8.000000e+01 -2.500000e+00
    endloop
  endfacet
  facet normal -0.000000e+00 1.000000e+00 0.000000e+00
    outer loop
      vertex   0.000000e+00 8.000000e+01 -2.500000e+00
      vertex   7.500000e-01 8.000000e+01 -2.500000e+00
      vertex   1.500000e+00 8.000000e+01 -3.000000e+00
    endloop
  endfacet
  facet normal 0.000000e+00 1.000000e+00 0.000000e+00
    outer loop
      vertex   1.500000e+00 8.000000e+01 -1.084202e-16
      vertex   1.500000e+00 8.000000e+01 -3.000000e+00
      vertex   7.500000e-01 8.000000e+01 -2.500000e+00
    endloop
  endfacet
  facet normal 0.000000e+00 1.000000e+00 0.000000e+00
    outer loop
      vertex   7.500000e-01 8.000000e+01 -2.500000e+00
      vertex   7.500000e-01 8.000000e+01 0.000000e+00
      vertex   1.500000e+00 8.000000e+01 -1.084202e-16
    endloop
  endfacet
  facet normal 0.000000e+00 1.000000e+00 0.000000e+00
    outer loop
      vertex   0.000000e+00 8.000000e+01 2.800000e+01
      vertex   1.500000e+00 8.000000e+01 -1.084202e-16
      vertex   7.500000e-01 8.000000e+01 0.000000e+00
    endloop
  endfacet
  facet normal 0.000000e+00 1.000000e+00 0.000000e+00
    outer loop
      vertex   2.500000e+00 8.000000e+01 0.000000e+00
      vertex   1.500000e+00 8.000000e+01 -1.084202e-16
      vertex   0.000000e+00 8.000000e+01 2.800000e+01
    endloop
  endfacet
  facet normal -0.000000e+00 1.000000e+00 0.000000e+00
    outer loop
      vertex   0.000000e+00 8.000000e+01 2.800000e+01
      vertex   1.250000e+00 8.000000e+01 2.800000e+01
      vertex   2.500000e+00 8.000000e+01 0.000000e+00
    endloop
  endfacet
  facet normal 0.000000e+00 1.000000e+00 0.000000e+00
    outer loop
      vertex   2.500000e+00 8.000000e+01 3.000000e+01
      vertex   2.500000e+00 8.000000e+01 0.000000e+00
      vertex   1.250000e+00 8.000000e+01 2.800000e+01
    endloop
  endfacet
  facet normal 0.000000e+00 1.000000e+00 0.000000e+00
    outer loop
      vertex   1.250000e+00 8.000000e+01 2.800000e+01
      vertex   1.250000e+00 8.000000e+01 2.900000e+01
      vertex   2.500000e+00 8.000000e+01 3.000000e+01
    endloop
  endfacet
  facet normal -0.000000e+00 1.000000e+00 0.000000e+00
    outer loop
      vertex   0.000000e+00 8.000000e+01 3.000000e+01
      vertex   2.500000e+00 8.000000e+01 3.000000e+01
      vertex   1.250000e+00 8.000000e+01 2.900000e+01
    endloop
  endfacet
  facet normal 0.000000e+00 1.000000e+00 0.000000e+00
    outer loop
      vertex   1.250000e+00 8.000000e+01 2.900000e+01
      vertex   -2.168404e-16 8.000000e+01 2.900000e+01
      vertex   0.000000e+00 8.000000e+01 3.000000e+01
    endloop
  endfacet
  facet normal -0.000000e+00 -1.000000e+00 0.000000e+00
    outer loop
      vertex   2.500000e+00 0.000000e+00 3.000000e+01
      vertex   0.000000e+00 0.000000e+00 3.000000e+01
      vertex   0.000000e+00 0.000000e+00 2.900000e+01
    endloop
  endfacet
  facet normal 0.000000e+00 -1.000000e+00 0.000000e+00
    outer loop
      vertex   0.000000e+00 0.000000e+00 2.900000e+01
      vertex   1.250000e+00 0.000000e+00 2.900000e+01
      vertex   2.500000e+00 0.000000e+00 3.000000e+01
    endloop
  endfacet
  facet normal 0.000000e+00 -1.000000e+00 0.000000e+00
    outer loop
      vertex   2.500000e+00 0.000000e+00 3.000000e+01
      vertex   1.250000e+00 0.000000e+00 2.900000e+01
      vertex   1.250000e+00 0.000000e+00 2.800000e+01
    endloop
  endfacet
  facet normal -0.000000e+00 -1.000000e+00 0.000000e+00
    outer loop
      vertex   1.250000e+00 0.000000e+00 2.800000e+01
      vertex   0.000000e+00 0.000000e+00 2.800000e+01
      vertex   0.000000e+00 0.000000e+00 0.000000e+00
    endloop
  endfacet
  facet normal 0.000000e+00 -1.000000e+00 0.000000e+00
    outer loop
      vertex   0.000000e+00 0.000000e+00 0.000000e+00
      vertex   7.500000e-01 0.000000e+00 0.000000e+00
      vertex   1.250000e+00 0.000000e+00 2.800000e+01
    endloop
  endfacet
  facet normal -0.000000e+00 -1.000000e+00 0.000000e+00
    outer loop
      vertex   7.500000e-01 0.000000e+00 -2.500000e+00
      vertex   0.000000e+00 0.000000e+00 -2.500000e+00
      vertex   4.336809e-16 0.000000e+00 -3.000000e+00
    endloop
  endfacet
  facet normal 0.000000e+00 -1.000000e+00 0.000000e+00
    outer loop
      vertex   4.336809e-16 0.000000e+00 -3.000000e+00
      vertex   1.500000e+00 0.000000e+00 -3.000000e+00
      vertex   7.500000e-01 0.000000e+00 -2.500000e+00
    endloop
  endfacet
  facet normal 0.000000e+00 -1.000000e+00 0.000000e+00
    outer loop
      vertex   7.500000e-01 0.000000e+00 0.000000e+00
      vertex   7.500000e-01 0.000000e+00 -2.500000e+00
      vertex   1.500000e+00 0.000000e+00 -3.000000e+00
    endloop
  endfacet
  facet normal 0.000000e+00 -1.000000e+00 0.000000e+00
    outer loop
      vertex   1.500000e+00 0.000000e+00 -3.000000e+00
      vertex   1.500000e+00 0.000000e+00 -1.084202e-16
      vertex   7.500000e-01 0.000000e+00 0.000000e+00
    endloop
  endfacet
  facet normal 0.000000e+00 -1.000000e+00 0.000000e+00
    outer loop
      vertex   1.500000e+00 0.000000e+00 -1.084202e-16
      vertex   1.250000e+00 0.000000e+00 2.800000e+01
      vertex   7.500000e-01 0.000000e+00 0.000000e+00
    endloop
  endfacet
  facet normal 0.000000e+00 -1.000000e+00 0.000000e+00
    outer loop
      vertex   1.500000e+00 0.000000e+00 -1.084202e-16
      vertex   2.500000e+00 0.000000e+00 0.000000e+00
      vertex   1.250000e+00 0.000000e+00 2.800000e+01
    endloop
  endfacet
  facet normal 0.000000e+00 -1.000000e+00 0.000000e+00
    outer loop
      vertex   1.250000e+00 0.000000e+00 2.800000e+01
      vertex   2.500000e+00 0.000000e+00 0.000000e+00
      vertex   2.500000e+00 0.000000e+00 3.000000e+01
    endloop
  endfacet
  facet normal 1.000000e+00 -0.000000e+00 1.445603e-16
    outer loop
      vertex   1.500000e+00 0.000000e+00 -3.000000e+00
      vertex   1.500000e+00 8.000000e+01 -3.000000e+00
      vertex   1.500000e+00 8.000000e+01 -1.084202e-16
    endloop
  endfacet
  facet normal 1.000000e+00 0.000000e+00 1.445603e-16
    outer loop
      vertex   1.500000e+00 8.000000e+01 -1.084202e-16
      vertex   1.500000e+00 0.000000e+00 -1.084202e-16
      vertex   1.500000e+00 0.000000e+00 -3.000000e+00
    endloop
  endfacet
  facet normal 1.084202e-16 0.000000e+00 -1.000000e+00
    outer loop
      vertex   1.500000e+00 0.000000e+00 -1.084202e-16
      vertex   1.500000e+00 8.000000e+01 -1.084202e-16
      vertex   2.500000e+00 8.000000e+01 0.000000e+00
    endloop
  endfacet
  facet normal 1.084202e-16 0.000000e+00 -1.000000e+00
    outer loop
      vertex   2.500000e+00 8.000000e+01 0.000000e+00
      vertex   2.500000e+00 0.000000e+00 0.000000e+00
      vertex   1.500000e+00 0.000000e+00 -1.084202e-16
    endloop
  endfacet
  facet normal -1.000000e+00 0.000000e+00 0.000000e+00
    outer loop
      vertex   0.000000e+00 1.215174e+01 1.467839e+01
      vertex   0.000000e+00 1.215174e+01 2.667839e+01
      vertex   0.000000e+00 8.000000e+01 2.800000e+01
    endloop
  endfacet
  facet normal -1.000000e+00 5.632219e-18 -2.891444e-16
    outer loop
      vertex   -4.336809e-16 3.000000e+00 2.800000e+01
      vertex   0.000000e+00 8.000000e+01 2.800000e+01
      vertex   0.000000e+00 1.215174e+01 2.667839e+01
    endloop
  endfacet
  facet normal -1.000000e+00 -0.000000e+00 -3.281458e-16
    outer loop
      vertex   0.000000e+00 1.215174e+01 2.667839e+01
      vertex   0.000000e+00 4.151738e+00 2.667839e+01
      vertex   -4.336809e-16 3.000000e+00 2.800000e+01
    endloop
  endfacet
  facet normal -1.000000e+00 3.765446e-16 0.000000e+00
    outer loop
      vertex   -4.336809e-16 3.000000e+00 2.800000e+01
      vertex   0.000000e+00 4.151738e+00 2.667839e+01
      vertex   0.000000e+00 4.151738e+00 1.467839e+01
    endloop
  endfacet
  facet normal -1.000000e+00 3.765446e-16 0.000000e+00
    outer loop
      vertex   0.000000e+00 4.151738e+00 6.087813e+00
      vertex   0.000000e+00 4.151738e+00 2.087813e+00
      vertex   -4.336809e-16 3.000000e+00 0.000000e+00
    endloop
  endfacet
  facet normal -1.000000e+00 -8.258716e-33 2.077201e-16
    outer loop
      vertex   -4.336809e-16 3.000000e+00 0.000000e+00
      vertex   0.000000e+00 4.151738e+00 2.087813e+00
      vertex   0.000000e+00 1.215174e+01 2.087813e+00
    endloop
  endfacet
  facet normal -1.000000e+00 5.632219e-18 1.830318e-16
    outer loop
      vertex   0.000000e+00 1.215174e+01 2.087813e+00
      vertex   0.000000e+00 8.000000e+01 0.000000e+00
      vertex   -4.336809e-16 3.000000e+00 0.000000e+00
    endloop
  endfacet
  facet normal -1.000000e+00 0.000000e+00 -0.000000e+00
    outer loop
      vertex   0.000000e+00 8.000000e+01 2.800000e+01
      vertex   0.000000e+00 8.000000e+01 0.000000e+00
      vertex   0.000000e+00 1.215174e+01 2.087813e+00
    endloop
  endfacet
  facet normal -1.000000e+00 0.000000e+00 0.000000e+00
    outer loop
      vertex   0.000000e+00 1.215174e+01 2.087813e+00
      vertex   0.000000e+00 1.215174e+01 6.087813e+00
      vertex   0.000000e+00 8.000000e+01 2.800000e+01
    endloop
  endfacet
  facet normal -1.000000e+00 0.000000e+00 0.000000e+00
    outer loop
      vertex   0.000000e+00 1.215174e+01 1.467839e+01
      vertex   0.000000e+00 8.000000e+01 2.800000e+01
      vertex   0.000000e+00 1.215174e+01 6.087813e+00
    endloop
  endfacet
  facet normal -1.000000e+00 0.000000e+00 0.000000e+00
    outer loop
      vertex   0.000000e+00 1.215174e+01 6.087813e+00
      vertex   0.000000e+00 4.151738e+00 6.087813e+00
      vertex   0.000000e+00 1.215174e+01 1.467839e+01
    endloop
  endfacet
  facet normal -1.000000e+00 0.000000e+00 0.000000e+00
    outer loop
      vertex   0.000000e+00 4.151738e+00 1.467839e+01
      vertex   0.000000e+00 1.215174e+01 1.467839e+01
      vertex   0.000000e+00 4.151738e+00 6.087813e+00
    endloop
  endfacet
  facet normal -1.000000e+00 3.765446e-16 0.000000e+00
    outer loop
      vertex   -4.336809e-16 3.000000e+00 0.000000e+00
      vertex   0.000000e+00 4.151738e+00 1.467839e+01
      vertex   0.000000e+00 4.151738e+00 6.087813e+00
    endloop
  endfacet
  facet normal -1.000000e+00 3.765446e-16 0.000000e+00
    outer loop
      vertex   0.000000e+00 4.151738e+00 1.467839e+01
      vertex   -4.336809e-16 3.000000e+00 0.000000e+00
      vertex   -4.336809e-16 3.000000e+00 2.800000e+01
    endloop
  endfacet
  facet normal 1.000000e+00 0.000000e+00 0.000000e+00
    outer loop
      vertex   2.500000e+00 1.215174e+01 1.467839e+01
      vertex   2.500000e+00 4.151738e+00 6.087813e+00
      vertex   2.500000e+00 1.215174e+01 6.087813e+00
    endloop
  endfacet
  facet normal 1.000000e+00 0.000000e+00 0.000000e+00
    outer loop
      vertex   2.500000e+00 4.151738e+00 6.087813e+00
      vertex   2.500000e+00 1.215174e+01 1.467839e+01
      vertex   2.500000e+00 4.151738e+00 1.467839e+01
    endloop
  endfacet
  facet normal 1.000000e+00 0.000000e+00 -0.000000e+00
    outer loop
      vertex   2.500000e+00 4.151738e+00 6.087813e+00
      vertex   2.500000e+00 4.151738e+00 1.467839e+01
      vertex   2.500000e+00 0.000000e+00 0.000000e+00
    endloop
  endfacet
  facet normal 1.000000e+00 0.000000e+00 -0.000000e+00
    outer loop
      vertex   2.500000e+00 1.215174e+01 2.667839e+01
      vertex   2.500000e+00 8.000000e+01 3.000000e+01
      vertex   2.500000e+00 0.000000e+00 3.000000e+01
    endloop
  endfacet
  facet normal 1.000000e+00 0.000000e+00 0.000000e+00
    outer loop
      vertex   2.500000e+00 0.000000e+00 3.000000e+01
      vertex   2.500000e+00 0.000000e+00 0.000000e+00
      vertex   2.500000e+00 4.151738e+00 1.467839e+01
    endloop
  endfacet
  facet normal 1.000000e+00 0.000000e+00 -0.000000e+00
    outer loop
      vertex   2.500000e+00 4.151738e+00 1.467839e+01
      vertex   2.500000e+00 4.151738e+00 2.667839e+01
      vertex   2.500000e+00 0.000000e+00 3.000000e+01
    endloop
  endfacet
  facet normal 1.000000e+00 0.000000e+00 0.000000e+00
    outer loop
      vertex   2.500000e+00 0.000000e+00 3.000000e+01
      vertex   2.500000e+00 4.151738e+00 2.667839e+01
      vertex   2.500000e+00 1.215174e+01 2.667839e+01
    endloop
  endfacet
  facet normal 1.000000e+00 0.000000e+00 0.000000e+00
    outer loop
      vertex   2.500000e+00 8.000000e+01 3.000000e+01
      vertex   2.500000e+00 1.215174e+01 2.667839e+01
      vertex   2.500000e+00 1.215174e+01 1.467839e+01
    endloop
  endfacet
  facet normal 1.000000e+00 0.000000e+00 0.000000e+00
    outer loop
      vertex   2.500000e+00 1.215174e+01 6.087813e+00
      vertex   2.500000e+00 8.000000e+01 3.000000e+01
      vertex   2.500000e+00 1.215174e+01 1.467839e+01
    endloop
  endfacet
  facet normal 1.000000e+00 0.000000e+00 -0.000000e+00
    outer loop
      vertex   2.500000e+00 8.000000e+01 0.000000e+00
      vertex   2.500000e+00 8.000000e+01 3.000000e+01
      vertex   2.500000e+00 1.215174e+01 6.087813e+00
    endloop
  endfacet
  facet normal 1.000000e+00 0.000000e+00 0.000000e+00
    outer loop
      vertex   2.500000e+00 1.215174e+01 6.087813e+00
      vertex   2.500000e+00 1.215174e+01 2.087813e+00
      vertex   2.500000e+00 8.000000e+01 0.000000e+00
    endloop
  endfacet
  facet normal 1.000000e+00 0.000000e+00 0.000000e+00
    outer loop
      vertex   2.500000e+00 0.000000e+00 0.000000e+00
      vertex   2.500000e+00 8.000000e+01 0.000000e+00
      vertex   2.500000e+00 1.215174e+01 2.087813e+00
    endloop
  endfacet
  facet normal 1.000000e+00 0.000000e+00 0.000000e+00
    outer loop
      vertex   2.500000e+00 1.215174e+01 2.087813e+00
      vertex   2.500000e+00 4.151738e+00 2.087813e+00
      vertex   2.500000e+00 0.000000e+00 0.000000e+00
    endloop
  endfacet
  facet normal 1.000000e+00 0.000000e+00 0.000000e+00
    outer loop
      vertex   2.500000e+00 0.000000e+00 0.000000e+00
      vertex   2.500000e+00 4.151738e+00 2.087813e+00
      vertex   2.500000e+00 4.151738e+00 6.087813e+00
    endloop
  endfacet
  facet normal 0.000000e+00 0.000000e+00 1.000000e+00
    outer loop
      vertex   2.500000e+00 1.215174e+01 1.467839e+01
      vertex   0.000000e+00 1.215174e+01 1.467839e+01
      vertex   0.000000e+00 4.151738e+00 1.467839e+01
    endloop
  endfacet
  facet normal 0.000000e+00 0.000000e+00 1.000000e+00
    outer loop
      vertex   0.000000e+00 4.151738e+00 1.467839e+01
      vertex   2.500000e+00 4.151738e+00 1.467839e+01
      vertex   2.500000e+00 1.215174e+01 1.467839e+01
    endloop
  endfacet
  facet normal -0.000000e+00 -1.000000e+00 0.000000e+00
    outer loop
      vertex   2.500000e+00 1.215174e+01 2.667839e+01
      vertex   0.000000e+00 1.215174e+01 2.667839e+01
      vertex   0.000000e+00 1.215174e+01 1.467839e+01
    endloop
  endfacet
  facet normal 0.000000e+00 -1.000000e+00 0.000000e+00
    outer loop
      vertex   0.000000e+00 1.215174e+01 1.467839e+01
      vertex   2.500000e+00 1.215174e+01 1.467839e+01
      vertex   2.500000e+00 1.215174e+01 2.667839e+01
    endloop
  endfacet
  facet normal 0.000000e+00 0.000000e+00 -1.000000e+00
    outer loop
      vertex   2.500000e+00 4.151738e+00 2.667839e+01
      vertex   0.000000e+00 4.151738e+00 2.667839e+01
      vertex   0.000000e+00 1.215174e+01 2.667839e+01
    endloop
  endfacet
  facet normal 0.000000e+00 0.000000e+00 -1.000000e+00
    outer loop
      vertex   0.000000e+00 1.215174e+01 2.667839e+01
      vertex   2.500000e+00 1.215174e+01 2.667839e+01
      vertex   2.500000e+00 4.151738e+00 2.667839e+01
    endloop
  endfacet
  facet normal 0.000000e+00 1.000000e+00 0.000000e+00
    outer loop
      vertex   2.500000e+00 4.151738e+00 1.467839e+01
      vertex   0.000000e+00 4.151738e+00 1.467839e+01
      vertex   0.000000e+00 4.151738e+00 2.667839e+01
    endloop
  endfacet
  facet normal -0.000000e+00 1.000000e+00 0.000000e+00
    outer loop
      vertex   0.000000e+00 4.151738e+00 2.667839e+01
      vertex   2.500000e+00 4.151738e+00 2.667839e+01
      vertex   2.500000e+00 4.151738e+00 1.467839e+01
    endloop
  endfacet
  facet normal 0.000000e+00 0.000000e+00 1.000000e+00
    outer loop
      vertex   2.500000e+00 1.215174e+01 2.087813e+00
      vertex   0.000000e+00 1.215174e+01 2.087813e+00
      vertex   0.000000e+00 4.151738e+00 2.087813e+00
    endloop
  endfacet
  facet normal 0.000000e+00 0.000000e+00 1.000000e+00
    outer loop
      vertex   0.000000e+00 4.151738e+00 2.087813e+00
      vertex   2.500000e+00 4.151738e+00 2.087813e+00
      vertex   2.500000e+00 1.215174e+01 2.087813e+00
    endloop
  endfacet
  facet normal -0.000000e+00 -1.000000e+00 0.000000e+00
    outer loop
      vertex   2.500000e+00 1.215174e+01 6.087813e+00
      vertex   0.000000e+00 1.215174e+01 6.087813e+00
      vertex   0.000000e+00 1.215174e+01 2.087813e+00
    endloop
  endfacet
  facet normal 0.000000e+00 -1.000000e+00 0.000000e+00
    outer loop
      vertex   0.000000e+00 1.215174e+01 2.087813e+00
      vertex   2.500000e+00 1.215174e+01 2.087813e+00
      vertex   2.500000e+00 1.215174e+01 6.087813e+00
    endloop
  endfacet
  facet normal 0.000000e+00 0.000000e+00 -1.000000e+00
    outer loop
      vertex   2.500000e+00 4.151738e+00 6.087813e+00
      vertex   0.000000e+00 4.151738e+00 6.087813e+00
      vertex   0.000000e+00 1.215174e+01 6.087813e+00
    endloop
  endfacet
  facet normal 0.000000e+00 0.000000e+00 -1.000000e+00
    outer loop
      vertex   0.000000e+00 1.215174e+01 6.087813e+00
      vertex   2.500000e+00 1.215174e+01 6.087813e+00
      vertex   2.500000e+00 4.151738e+00 6.087813e+00
    endloop
  endfacet
  facet normal 0.000000e+00 1.000000e+00 0.000000e+00
    outer loop
      vertex   2.500000e+00 4.151738e+00 2.087813e+00
      vertex   0.000000e+00 4.151738e+00 2.087813e+00
      vertex   0.000000e+00 4.151738e+00 6.087813e+00
    endloop
  endfacet
  facet normal -0.000000e+00 1.000000e+00 0.000000e+00
    outer loop
      vertex   0.000000e+00 4.151738e+00 6.087813e+00
      vertex   2.500000e+00 4.151738e+00 6.087813e+00
      vertex   2.500000e+00 4.151738e+00 2.087813e+00
    endloop
  endfacet
endsolid
