solid ascii
  facet normal 0.000000e+00 1.000000e+00 -4.625929e-15
    outer loop
      vertex   -2.148613e+01 -5.525000e+01 5.000000e+00
      vertex   -2.148613e+01 -5.525000e+01 2.000000e+00
      vertex   -2.150000e+01 -5.525000e+01 2.000000e+00
    endloop
  endfacet
  facet normal -1.000475e-12 1.000000e+00 0.000000e+00
    outer loop
      vertex   -2.150000e+01 -5.525000e+01 2.000000e+00
      vertex   -2.150000e+01 -5.525000e+01 5.000000e+00
      vertex   -2.148613e+01 -5.525000e+01 5.000000e+00
    endloop
  endfacet
  facet normal 1.000000e+00 -1.734723e-16 0.000000e+00
    outer loop
      vertex   -2.150000e+01 -5.525000e+01 5.000000e+00
      vertex   -2.150000e+01 -5.525000e+01 2.000000e+00
      vertex   -2.150000e+01 2.475000e+01 2.000000e+00
    endloop
  endfacet
  facet normal 1.000000e+00 -1.734723e-16 -4.012354e-31
    outer loop
      vertex   -2.150000e+01 2.475000e+01 2.000000e+00
      vertex   -2.150000e+01 2.475000e+01 5.000000e+00
      vertex   -2.150000e+01 -5.525000e+01 5.000000e+00
    endloop
  endfacet
  facet normal 7.071068e-01 -7.071068e-01 0.000000e+00
    outer loop
      vertex   -2.149306e+01 -5.525694e+01 5.000000e+00
      vertex   -2.149306e+01 -5.525694e+01 2.000000e+00
      vertex   -2.148613e+01 -5.525000e+01 2.000000e+00
    endloop
  endfacet
  facet normal 7.071068e-01 -7.071068e-01 3.271026e-15
    outer loop
      vertex   -2.148613e+01 -5.525000e+01 2.000000e+00
      vertex   -2.148613e+01 -5.525000e+01 5.000000e+00
      vertex   -2.149306e+01 -5.525694e+01 5.000000e+00
    endloop
  endfacet
  facet normal 7.071068e-01 7.071068e-01 -1.226635e-15
    outer loop
      vertex   1.350000e+01 -9.025000e+01 5.000000e+00
      vertex   1.350000e+01 -9.025000e+01 2.000000e+00
      vertex   -2.149306e+01 -5.525694e+01 2.000000e+00
    endloop
  endfacet
  facet normal 7.071068e-01 7.071068e-01 -0.000000e+00
    outer loop
      vertex   -2.149306e+01 -5.525694e+01 2.000000e+00
      vertex   -2.149306e+01 -5.525694e+01 5.000000e+00
      vertex   1.350000e+01 -9.025000e+01 5.000000e+00
    endloop
  endfacet
  facet normal 0.000000e+00 -0.000000e+00 1.000000e+00
    outer loop
      vertex   -2.150000e+01 -5.525000e+01 5.000000e+00
      vertex   -2.150000e+01 2.475000e+01 5.000000e+00
      vertex   -2.250000e+01 2.475000e+01 5.000000e+00
    endloop
  endfacet
  facet normal 0.000000e+00 0.000000e+00 1.000000e+00
    outer loop
      vertex   -2.250000e+01 2.475000e+01 5.000000e+00
      vertex   -2.250000e+01 -5.525000e+01 5.000000e+00
      vertex   -2.150000e+01 -5.525000e+01 5.000000e+00
    endloop
  endfacet
  facet normal 0.000000e+00 0.000000e+00 1.000000e+00
    outer loop
      vertex   -2.250000e+01 -5.525000e+01 5.000000e+00
      vertex   1.250000e+01 -9.025000e+01 5.000000e+00
      vertex   1.350000e+01 -9.025000e+01 5.000000e+00
    endloop
  endfacet
  facet normal 0.000000e+00 0.000000e+00 1.000000e+00
    outer loop
      vertex   1.350000e+01 -9.025000e+01 5.000000e+00
      vertex   -2.149306e+01 -5.525694e+01 5.000000e+00
      vertex   -2.250000e+01 -5.525000e+01 5.000000e+00
    endloop
  endfacet
  facet normal 0.000000e+00 0.000000e+00 1.000000e+00
    outer loop
      vertex   -2.150000e+01 -5.525000e+01 5.000000e+00
      vertex   -2.250000e+01 -5.525000e+01 5.000000e+00
      vertex   -2.149306e+01 -5.525694e+01 5.000000e+00
    endloop
  endfacet
  facet normal 0.000000e+00 -0.000000e+00 1.000000e+00
    outer loop
      vertex   -2.149306e+01 -5.525694e+01 5.000000e+00
      vertex   -2.148613e+01 -5.525000e+01 5.000000e+00
      vertex   -2.150000e+01 -5.525000e+01 5.000000e+00
    endloop
  endfacet
  facet normal -1.000000e+00 -2.602085e-16 0.000000e+00
    outer loop
      vertex   -2.250000e+01 -5.525000e+01 0.000000e+00
      vertex   -2.250000e+01 -5.525000e+01 5.000000e+00
      vertex   -2.250000e+01 2.475000e+01 5.000000e+00
    endloop
  endfacet
  facet normal -1.000000e+00 -2.602085e-16 -0.000000e+00
    outer loop
      vertex   -2.250000e+01 2.475000e+01 5.000000e+00
      vertex   -2.250000e+01 2.475000e+01 0.000000e+00
      vertex   -2.250000e+01 -5.525000e+01 0.000000e+00
    endloop
  endfacet
  facet normal -7.071068e-01 -7.071068e-01 0.000000e+00
    outer loop
      vertex   1.250000e+01 -9.025000e+01 0.000000e+00
      vertex   1.250000e+01 -9.025000e+01 5.000000e+00
      vertex   -2.250000e+01 -5.525000e+01 5.000000e+00
    endloop
  endfacet
  facet normal -7.071068e-01 -7.071068e-01 -0.000000e+00
    outer loop
      vertex   -2.250000e+01 -5.525000e+01 5.000000e+00
      vertex   -2.250000e+01 -5.525000e+01 0.000000e+00
      vertex   1.250000e+01 -9.025000e+01 0.000000e+00
    endloop
  endfacet
  facet normal 0.000000e+00 -0.000000e+00 -1.000000e+00
    outer loop
      vertex   2.250000e+01 2.475000e+01 0.000000e+00
      vertex   2.250000e+01 -9.025000e+01 0.000000e+00
      vertex   1.250000e+01 -9.025000e+01 0.000000e+00
    endloop
  endfacet
  facet normal 0.000000e+00 0.000000e+00 -1.000000e+00
    outer loop
      vertex   1.250000e+01 -9.025000e+01 0.000000e+00
      vertex   -2.250000e+01 -5.525000e+01 0.000000e+00
      vertex   2.250000e+01 2.475000e+01 0.000000e+00
    endloop
  endfacet
  facet normal 0.000000e+00 0.000000e+00 -1.000000e+00
    outer loop
      vertex   -2.250000e+01 -5.525000e+01 0.000000e+00
      vertex   -2.250000e+01 2.475000e+01 0.000000e+00
      vertex   2.250000e+01 2.475000e+01 0.000000e+00
    endloop
  endfacet
  facet normal -3.126486e-14 -3.126486e-14 1.000000e+00
    outer loop
      vertex   -2.148613e+01 -5.525000e+01 2.000000e+00
      vertex   -2.149306e+01 -5.525694e+01 2.000000e+00
      vertex   1.350000e+01 -9.025000e+01 2.000000e+00
    endloop
  endfacet
  facet normal 0.000000e+00 0.000000e+00 1.000000e+00
    outer loop
      vertex   -2.150000e+01 2.475000e+01 2.000000e+00
      vertex   -2.150000e+01 -5.525000e+01 2.000000e+00
      vertex   -2.148613e+01 -5.525000e+01 2.000000e+00
    endloop
  endfacet
  facet normal -2.891206e-16 -5.013059e-20 1.000000e+00
    outer loop
      vertex   -2.000000e+01 2.475000e+01 2.000000e+00
      vertex   -2.150000e+01 2.475000e+01 2.000000e+00
      vertex   -2.148613e+01 -5.525000e+01 2.000000e+00
    endloop
  endfacet
  facet normal 5.951190e-16 -1.647630e-17 1.000000e+00
    outer loop
      vertex   -2.148613e+01 -5.525000e+01 2.000000e+00
      vertex   -2.000000e+01 -5.421447e+01 2.000000e+00
      vertex   -2.000000e+01 2.475000e+01 2.000000e+00
    endloop
  endfacet
  facet normal 3.491094e-16 3.365802e-16 1.000000e+00
    outer loop
      vertex   -2.000000e+01 -5.421447e+01 2.000000e+00
      vertex   -2.148613e+01 -5.525000e+01 2.000000e+00
      vertex   1.350000e+01 -9.025000e+01 2.000000e+00
    endloop
  endfacet
  facet normal 1.710412e-16 1.710412e-16 1.000000e+00
    outer loop
      vertex   1.350000e+01 -9.025000e+01 2.000000e+00
      vertex   1.603553e+01 -9.025000e+01 2.000000e+00
      vertex   -2.000000e+01 -5.421447e+01 2.000000e+00
    endloop
  endfacet
  facet normal -1.000000e+00 1.757473e-16 0.000000e+00
    outer loop
      vertex   -2.000000e+01 -5.421447e+01 2.000000e+00
      vertex   -2.000000e+01 -5.421447e+01 2.500000e+00
      vertex   -2.000000e+01 2.475000e+01 2.500000e+00
    endloop
  endfacet
  facet normal -1.000000e+00 1.757473e-16 0.000000e+00
    outer loop
      vertex   -2.000000e+01 2.475000e+01 2.500000e+00
      vertex   -2.000000e+01 2.475000e+01 2.000000e+00
      vertex   -2.000000e+01 -5.421447e+01 2.000000e+00
    endloop
  endfacet
  facet normal -7.071068e-01 -7.071068e-01 0.000000e+00
    outer loop
      vertex   1.603553e+01 -9.025000e+01 2.000000e+00
      vertex   1.603553e+01 -9.025000e+01 2.500000e+00
      vertex   -2.000000e+01 -5.421447e+01 2.500000e+00
    endloop
  endfacet
  facet normal -7.071068e-01 -7.071068e-01 -0.000000e+00
    outer loop
      vertex   -2.000000e+01 -5.421447e+01 2.500000e+00
      vertex   -2.000000e+01 -5.421447e+01 2.000000e+00
      vertex   1.603553e+01 -9.025000e+01 2.000000e+00
    endloop
  endfacet
  facet normal -4.857716e-16 -4.857716e-16 -1.000000e+00
    outer loop
      vertex   -2.000000e+01 -5.421447e+01 2.500000e+00
      vertex   1.603553e+01 -9.025000e+01 2.500000e+00
      vertex   1.425000e+01 -9.025000e+01 2.500000e+00
    endloop
  endfacet
  facet normal -4.857716e-16 -4.857716e-16 -1.000000e+00
    outer loop
      vertex   1.425000e+01 -9.025000e+01 2.500000e+00
      vertex   -2.075000e+01 -5.525000e+01 2.500000e+00
      vertex   -2.000000e+01 -5.421447e+01 2.500000e+00
    endloop
  endfacet
  facet normal -1.164065e-15 5.492102e-18 -1.000000e+00
    outer loop
      vertex   -2.000000e+01 2.475000e+01 2.500000e+00
      vertex   -2.000000e+01 -5.421447e+01 2.500000e+00
      vertex   -2.075000e+01 -5.525000e+01 2.500000e+00
    endloop
  endfacet
  facet normal 0.000000e+00 -5.421011e-18 -1.000000e+00
    outer loop
      vertex   -2.075000e+01 -5.525000e+01 2.500000e+00
      vertex   -2.075000e+01 2.475000e+01 2.500000e+00
      vertex   -2.000000e+01 2.475000e+01 2.500000e+00
    endloop
  endfacet
  facet normal -1.000000e+00 4.336809e-17 0.000000e+00
    outer loop
      vertex   -2.075000e+01 -5.525000e+01 2.500000e+00
      vertex   -2.075000e+01 -5.525000e+01 5.000000e+00
      vertex   -2.075000e+01 2.475000e+01 5.000000e+00
    endloop
  endfacet
  facet normal -1.000000e+00 4.336809e-17 0.000000e+00
    outer loop
      vertex   -2.075000e+01 2.475000e+01 5.000000e+00
      vertex   -2.075000e+01 2.475000e+01 2.500000e+00
      vertex   -2.075000e+01 -5.525000e+01 2.500000e+00
    endloop
  endfacet
  facet normal -7.071068e-01 -7.071068e-01 0.000000e+00
    outer loop
      vertex   -2.075000e+01 -5.525000e+01 2.500000e+00
      vertex   1.425000e+01 -9.025000e+01 2.500000e+00
      vertex   1.425000e+01 -9.025000e+01 5.000000e+00
    endloop
  endfacet
  facet normal -7.071068e-01 -7.071068e-01 -1.100466e-15
    outer loop
      vertex   1.425000e+01 -9.025000e+01 5.000000e+00
      vertex   -2.075000e+01 -5.525000e+01 5.000000e+00
      vertex   -2.075000e+01 -5.525000e+01 2.500000e+00
    endloop
  endfacet
  facet normal 0.000000e+00 -1.000000e+00 0.000000e+00
    outer loop
      vertex   2.250000e+01 -9.025000e+01 0.000000e+00
      vertex   2.250000e+01 -9.025000e+01 1.800000e+01
      vertex   1.499553e+01 -9.025000e+01 1.800000e+01
    endloop
  endfacet
  facet normal 0.000000e+00 -1.000000e+00 0.000000e+00
    outer loop
      vertex   1.499553e+01 -9.025000e+01 1.800000e+01
      vertex   1.499553e+01 -9.025000e+01 5.000000e+00
      vertex   2.250000e+01 -9.025000e+01 0.000000e+00
    endloop
  endfacet
  facet normal 0.000000e+00 -1.000000e+00 0.000000e+00
    outer loop
      vertex   1.350000e+01 -9.025000e+01 2.000000e+00
      vertex   1.350000e+01 -9.025000e+01 5.000000e+00
      vertex   1.250000e+01 -9.025000e+01 5.000000e+00
    endloop
  endfacet
  facet normal 0.000000e+00 -1.000000e+00 0.000000e+00
    outer loop
      vertex   1.250000e+01 -9.025000e+01 5.000000e+00
      vertex   1.250000e+01 -9.025000e+01 0.000000e+00
      vertex   1.350000e+01 -9.025000e+01 2.000000e+00
    endloop
  endfacet
  facet normal -0.000000e+00 -1.000000e+00 0.000000e+00
    outer loop
      vertex   1.603553e+01 -9.025000e+01 2.000000e+00
      vertex   1.350000e+01 -9.025000e+01 2.000000e+00
      vertex   1.250000e+01 -9.025000e+01 0.000000e+00
    endloop
  endfacet
  facet normal 0.000000e+00 -1.000000e+00 0.000000e+00
    outer loop
      vertex   1.250000e+01 -9.025000e+01 0.000000e+00
      vertex   2.250000e+01 -9.025000e+01 0.000000e+00
      vertex   1.603553e+01 -9.025000e+01 2.000000e+00
    endloop
  endfacet
  facet normal 0.000000e+00 -1.000000e+00 0.000000e+00
    outer loop
      vertex   2.250000e+01 -9.025000e+01 0.000000e+00
      vertex   1.603553e+01 -9.025000e+01 2.500000e+00
      vertex   1.603553e+01 -9.025000e+01 2.000000e+00
    endloop
  endfacet
  facet normal 0.000000e+00 -1.000000e+00 0.000000e+00
    outer loop
      vertex   1.603553e+01 -9.025000e+01 2.500000e+00
      vertex   2.250000e+01 -9.025000e+01 0.000000e+00
      vertex   1.499553e+01 -9.025000e+01 5.000000e+00
    endloop
  endfacet
  facet normal 0.000000e+00 -1.000000e+00 0.000000e+00
    outer loop
      vertex   1.425000e+01 -9.025000e+01 2.500000e+00
      vertex   1.603553e+01 -9.025000e+01 2.500000e+00
      vertex   1.499553e+01 -9.025000e+01 5.000000e+00
    endloop
  endfacet
  facet normal -0.000000e+00 -1.000000e+00 0.000000e+00
    outer loop
      vertex   1.499553e+01 -9.025000e+01 5.000000e+00
      vertex   1.425000e+01 -9.025000e+01 5.000000e+00
      vertex   1.425000e+01 -9.025000e+01 2.500000e+00
    endloop
  endfacet
  facet normal 1.000000e+00 -3.469447e-15 -2.668805e-16
    outer loop
      vertex   2.250000e+01 -8.925000e+01 5.000000e+00
      vertex   2.250000e+01 -8.925000e+01 1.800000e+01
      vertex   2.250000e+01 -9.025000e+01 1.800000e+01
    endloop
  endfacet
  facet normal 1.000000e+00 0.000000e+00 0.000000e+00
    outer loop
      vertex   2.250000e+01 -9.025000e+01 1.800000e+01
      vertex   2.250000e+01 -9.025000e+01 0.000000e+00
      vertex   2.250000e+01 -8.925000e+01 5.000000e+00
    endloop
  endfacet
  facet normal 1.000000e+00 0.000000e+00 0.000000e+00
    outer loop
      vertex   2.250000e+01 2.475000e+01 5.000000e+00
      vertex   2.250000e+01 -8.925000e+01 5.000000e+00
      vertex   2.250000e+01 -9.025000e+01 0.000000e+00
    endloop
  endfacet
  facet normal 1.000000e+00 0.000000e+00 0.000000e+00
    outer loop
      vertex   2.250000e+01 -9.025000e+01 0.000000e+00
      vertex   2.250000e+01 2.475000e+01 0.000000e+00
      vertex   2.250000e+01 2.475000e+01 5.000000e+00
    endloop
  endfacet
  facet normal -7.071068e-01 -7.071068e-01 0.000000e+00
    outer loop
      vertex   1.499553e+01 -9.025000e+01 5.000000e+00
      vertex   1.499553e+01 -9.025000e+01 1.800000e+01
      vertex   1.401574e+01 -8.927020e+01 1.800000e+01
    endloop
  endfacet
  facet normal -7.071068e-01 -7.071068e-01 -0.000000e+00
    outer loop
      vertex   1.401574e+01 -8.927020e+01 1.800000e+01
      vertex   1.401574e+01 -8.927020e+01 5.000000e+00
      vertex   1.499553e+01 -9.025000e+01 5.000000e+00
    endloop
  endfacet
  facet normal -2.381217e-03 9.999972e-01 0.000000e+00
    outer loop
      vertex   1.401574e+01 -8.927020e+01 5.000000e+00
      vertex   1.401574e+01 -8.927020e+01 1.800000e+01
      vertex   2.250000e+01 -8.925000e+01 1.800000e+01
    endloop
  endfacet
  facet normal -2.381217e-03 9.999972e-01 6.355004e-19
    outer loop
      vertex   2.250000e+01 -8.925000e+01 1.800000e+01
      vertex   2.250000e+01 -8.925000e+01 5.000000e+00
      vertex   1.401574e+01 -8.927020e+01 5.000000e+00
    endloop
  endfacet
  facet normal 0.000000e+00 0.000000e+00 1.000000e+00
    outer loop
      vertex   1.499553e+01 -9.025000e+01 1.800000e+01
      vertex   2.250000e+01 -9.025000e+01 1.800000e+01
      vertex   2.250000e+01 -8.925000e+01 1.800000e+01
    endloop
  endfacet
  facet normal 0.000000e+00 0.000000e+00 1.000000e+00
    outer loop
      vertex   2.250000e+01 -8.925000e+01 1.800000e+01
      vertex   1.401574e+01 -8.927020e+01 1.800000e+01
      vertex   1.499553e+01 -9.025000e+01 1.800000e+01
    endloop
  endfacet
  facet normal 0.000000e+00 0.000000e+00 1.000000e+00
    outer loop
      vertex   2.250000e+01 2.475000e+01 5.000000e+00
      vertex   2.150000e+01 2.475000e+01 5.000000e+00
      vertex   2.150000e+01 -5.525000e+01 5.000000e+00
    endloop
  endfacet
  facet normal 0.000000e+00 0.000000e+00 1.000000e+00
    outer loop
      vertex   2.150000e+01 -5.525000e+01 5.000000e+00
      vertex   2.075000e+01 -5.525000e+01 5.000000e+00
      vertex   1.401574e+01 -8.927020e+01 5.000000e+00
    endloop
  endfacet
  facet normal 0.000000e+00 0.000000e+00 1.000000e+00
    outer loop
      vertex   1.401574e+01 -8.927020e+01 5.000000e+00
      vertex   2.250000e+01 -8.925000e+01 5.000000e+00
      vertex   2.150000e+01 -5.525000e+01 5.000000e+00
    endloop
  endfacet
  facet normal -0.000000e+00 0.000000e+00 1.000000e+00
    outer loop
      vertex   2.150000e+01 -5.525000e+01 5.000000e+00
      vertex   2.250000e+01 -8.925000e+01 5.000000e+00
      vertex   2.250000e+01 2.475000e+01 5.000000e+00
    endloop
  endfacet
  facet normal 0.000000e+00 0.000000e+00 1.000000e+00
    outer loop
      vertex   2.075000e+01 -5.525000e+01 5.000000e+00
      vertex   2.075000e+01 2.475000e+01 5.000000e+00
      vertex   -2.075000e+01 2.475000e+01 5.000000e+00
    endloop
  endfacet
  facet normal 0.000000e+00 0.000000e+00 1.000000e+00
    outer loop
      vertex   -2.075000e+01 2.475000e+01 5.000000e+00
      vertex   -2.075000e+01 -5.525000e+01 5.000000e+00
      vertex   2.075000e+01 -5.525000e+01 5.000000e+00
    endloop
  endfacet
  facet normal -0.000000e+00 0.000000e+00 1.000000e+00
    outer loop
      vertex   -2.075000e+01 -5.525000e+01 5.000000e+00
      vertex   1.401574e+01 -8.927020e+01 5.000000e+00
      vertex   2.075000e+01 -5.525000e+01 5.000000e+00
    endloop
  endfacet
  facet normal 0.000000e+00 0.000000e+00 1.000000e+00
    outer loop
      vertex   1.401574e+01 -8.927020e+01 5.000000e+00
      vertex   -2.075000e+01 -5.525000e+01 5.000000e+00
      vertex   1.425000e+01 -9.025000e+01 5.000000e+00
    endloop
  endfacet
  facet normal 0.000000e+00 -0.000000e+00 1.000000e+00
    outer loop
      vertex   1.425000e+01 -9.025000e+01 5.000000e+00
      vertex   1.499553e+01 -9.025000e+01 5.000000e+00
      vertex   1.401574e+01 -8.927020e+01 5.000000e+00
    endloop
  endfacet
  facet normal 1.000000e+00 1.734723e-16 1.387779e-15
    outer loop
      vertex   2.075000e+01 -5.525000e+01 5.000000e+00
      vertex   2.075000e+01 -5.525000e+01 2.500000e+00
      vertex   2.075000e+01 2.475000e+01 2.500000e+00
    endloop
  endfacet
  facet normal 1.000000e+00 1.301043e-16 -0.000000e+00
    outer loop
      vertex   2.075000e+01 2.475000e+01 2.500000e+00
      vertex   2.075000e+01 2.475000e+01 5.000000e+00
      vertex   2.075000e+01 -5.525000e+01 5.000000e+00
    endloop
  endfacet
  facet normal 0.000000e+00 0.000000e+00 -1.000000e+00
    outer loop
      vertex   2.075000e+01 -5.525000e+01 2.500000e+00
      vertex   2.000000e+01 -5.525000e+01 2.500000e+00
      vertex   2.000000e+01 2.475000e+01 2.500000e+00
    endloop
  endfacet
  facet normal 0.000000e+00 0.000000e+00 -1.000000e+00
    outer loop
      vertex   2.000000e+01 2.475000e+01 2.500000e+00
      vertex   2.075000e+01 2.475000e+01 2.500000e+00
      vertex   2.075000e+01 -5.525000e+01 2.500000e+00
    endloop
  endfacet
  facet normal -3.344045e-16 1.000000e+00 1.003214e-16
    outer loop
      vertex   2.000000e+01 2.475000e+01 2.500000e+00
      vertex   -2.075000e+01 2.475000e+01 5.000000e+00
      vertex   2.075000e+01 2.475000e+01 5.000000e+00
    endloop
  endfacet
  facet normal 0.000000e+00 1.000000e+00 0.000000e+00
    outer loop
      vertex   2.075000e+01 2.475000e+01 5.000000e+00
      vertex   2.075000e+01 2.475000e+01 2.500000e+00
      vertex   2.000000e+01 2.475000e+01 2.500000e+00
    endloop
  endfacet
  facet normal 0.000000e+00 1.000000e+00 0.000000e+00
    outer loop
      vertex   2.150000e+01 2.475000e+01 2.000000e+00
      vertex   2.150000e+01 2.475000e+01 5.000000e+00
      vertex   2.250000e+01 2.475000e+01 5.000000e+00
    endloop
  endfacet
  facet normal 0.000000e+00 1.000000e+00 0.000000e+00
    outer loop
      vertex   2.250000e+01 2.475000e+01 5.000000e+00
      vertex   2.250000e+01 2.475000e+01 0.000000e+00
      vertex   2.150000e+01 2.475000e+01 2.000000e+00
    endloop
  endfacet
  facet normal 0.000000e+00 1.000000e+00 0.000000e+00
    outer loop
      vertex   2.000000e+01 2.475000e+01 2.000000e+00
      vertex   2.150000e+01 2.475000e+01 2.000000e+00
      vertex   2.250000e+01 2.475000e+01 0.000000e+00
    endloop
  endfacet
  facet normal 6.938894e-15 1.000000e+00 -0.000000e+00
    outer loop
      vertex   -2.250000e+01 2.475000e+01 0.000000e+00
      vertex   -2.250000e+01 2.475000e+01 5.000000e+00
      vertex   -2.150000e+01 2.475000e+01 5.000000e+00
    endloop
  endfacet
  facet normal -4.625929e-15 1.000000e+00 2.312965e-15
    outer loop
      vertex   -2.150000e+01 2.475000e+01 5.000000e+00
      vertex   -2.150000e+01 2.475000e+01 2.000000e+00
      vertex   -2.250000e+01 2.475000e+01 0.000000e+00
    endloop
  endfacet
  facet normal 4.625929e-15 1.000000e+00 -2.312965e-15
    outer loop
      vertex   -2.250000e+01 2.475000e+01 0.000000e+00
      vertex   -2.150000e+01 2.475000e+01 2.000000e+00
      vertex   -2.000000e+01 2.475000e+01 2.000000e+00
    endloop
  endfacet
  facet normal 0.000000e+00 1.000000e+00 0.000000e+00
    outer loop
      vertex   -2.000000e+01 2.475000e+01 2.500000e+00
      vertex   -2.075000e+01 2.475000e+01 2.500000e+00
      vertex   -2.075000e+01 2.475000e+01 5.000000e+00
    endloop
  endfacet
  facet normal -3.469447e-16 1.000000e+00 -1.040834e-16
    outer loop
      vertex   -2.075000e+01 2.475000e+01 5.000000e+00
      vertex   2.000000e+01 2.475000e+01 2.500000e+00
      vertex   -2.000000e+01 2.475000e+01 2.500000e+00
    endloop
  endfacet
  facet normal -3.469447e-16 1.000000e+00 0.000000e+00
    outer loop
      vertex   -2.000000e+01 2.475000e+01 2.000000e+00
      vertex   -2.000000e+01 2.475000e+01 2.500000e+00
      vertex   2.000000e+01 2.475000e+01 2.500000e+00
    endloop
  endfacet
  facet normal -3.469447e-16 1.000000e+00 -2.407412e-30
    outer loop
      vertex   2.000000e+01 2.475000e+01 2.500000e+00
      vertex   2.000000e+01 2.475000e+01 2.000000e+00
      vertex   -2.000000e+01 2.475000e+01 2.000000e+00
    endloop
  endfacet
  facet normal -3.469447e-16 1.000000e+00 3.903128e-15
    outer loop
      vertex   -2.000000e+01 2.475000e+01 2.000000e+00
      vertex   2.000000e+01 2.475000e+01 2.000000e+00
      vertex   -2.250000e+01 2.475000e+01 0.000000e+00
    endloop
  endfacet
  facet normal -1.541976e-16 1.000000e+00 -1.927471e-16
    outer loop
      vertex   2.250000e+01 2.475000e+01 0.000000e+00
      vertex   -2.250000e+01 2.475000e+01 0.000000e+00
      vertex   2.000000e+01 2.475000e+01 2.000000e+00
    endloop
  endfacet
  facet normal 1.850372e-14 1.000000e+00 -5.551115e-15
    outer loop
      vertex   2.075000e+01 -5.525000e+01 2.500000e+00
      vertex   2.075000e+01 -5.525000e+01 5.000000e+00
      vertex   2.150000e+01 -5.525000e+01 5.000000e+00
    endloop
  endfacet
  facet normal 0.000000e+00 1.000000e+00 0.000000e+00
    outer loop
      vertex   2.150000e+01 -5.525000e+01 5.000000e+00
      vertex   2.150000e+01 -5.525000e+01 2.000000e+00
      vertex   2.075000e+01 -5.525000e+01 2.500000e+00
    endloop
  endfacet
  facet normal -0.000000e+00 1.000000e+00 0.000000e+00
    outer loop
      vertex   2.000000e+01 -5.525000e+01 2.500000e+00
      vertex   2.075000e+01 -5.525000e+01 2.500000e+00
      vertex   2.150000e+01 -5.525000e+01 2.000000e+00
    endloop
  endfacet
  facet normal 0.000000e+00 1.000000e+00 0.000000e+00
    outer loop
      vertex   2.150000e+01 -5.525000e+01 2.000000e+00
      vertex   2.000000e+01 -5.525000e+01 2.000000e+00
      vertex   2.000000e+01 -5.525000e+01 2.500000e+00
    endloop
  endfacet
  facet normal -1.000000e+00 -1.734723e-16 0.000000e+00
    outer loop
      vertex   2.150000e+01 -5.525000e+01 2.000000e+00
      vertex   2.150000e+01 -5.525000e+01 5.000000e+00
      vertex   2.150000e+01 2.475000e+01 5.000000e+00
    endloop
  endfacet
  facet normal -1.000000e+00 -1.734723e-16 -0.000000e+00
    outer loop
      vertex   2.150000e+01 2.475000e+01 5.000000e+00
      vertex   2.150000e+01 2.475000e+01 2.000000e+00
      vertex   2.150000e+01 -5.525000e+01 2.000000e+00
    endloop
  endfacet
  facet normal 2.891206e-16 5.085349e-32 1.000000e+00
    outer loop
      vertex   2.000000e+01 -5.525000e+01 2.000000e+00
      vertex   2.150000e+01 -5.525000e+01 2.000000e+00
      vertex   2.150000e+01 2.475000e+01 2.000000e+00
    endloop
  endfacet
  facet normal 2.891206e-16 3.775486e-32 1.000000e+00
    outer loop
      vertex   2.150000e+01 2.475000e+01 2.000000e+00
      vertex   2.000000e+01 2.475000e+01 2.000000e+00
      vertex   2.000000e+01 -5.525000e+01 2.000000e+00
    endloop
  endfacet
  facet normal 1.000000e+00 1.301043e-16 0.000000e+00
    outer loop
      vertex   2.000000e+01 -5.525000e+01 2.500000e+00
      vertex   2.000000e+01 -5.525000e+01 2.000000e+00
      vertex   2.000000e+01 2.475000e+01 2.000000e+00
    endloop
  endfacet
  facet normal 1.000000e+00 1.734723e-16 6.938894e-15
    outer loop
      vertex   2.000000e+01 2.475000e+01 2.000000e+00
      vertex   2.000000e+01 2.475000e+01 2.500000e+00
      vertex   2.000000e+01 -5.525000e+01 2.500000e+00
    endloop
  endfacet
endsolid
