solid ascii
  facet normal 0.000000e+00 5.632219e-18 -1.000000e+00
    outer loop
      vertex   0.000000e+00 3.000000e+00 -4.336809e-16
      vertex   0.000000e+00 8.000000e+01 0.000000e+00
      vertex   4.250000e+01 8.000000e+01 0.000000e+00
    endloop
  endfacet
  facet normal 0.000000e+00 5.632219e-18 -1.000000e+00
    outer loop
      vertex   4.250000e+01 8.000000e+01 0.000000e+00
      vertex   4.250000e+01 3.000000e+00 -4.336809e-16
      vertex   0.000000e+00 3.000000e+00 -4.336809e-16
    endloop
  endfacet
  facet normal -1.000000e+00 0.000000e+00 0.000000e+00
    outer loop
      vertex   0.000000e+00 3.000000e+00 1.000000e+00
      vertex   0.000000e+00 8.000000e+01 1.000000e+00
      vertex   0.000000e+00 8.000000e+01 0.000000e+00
    endloop
  endfacet
  facet normal -1.000000e+00 -0.000000e+00 0.000000e+00
    outer loop
      vertex   0.000000e+00 8.000000e+01 0.000000e+00
      vertex   0.000000e+00 3.000000e+00 -4.336809e-16
      vertex   0.000000e+00 3.000000e+00 1.000000e+00
    endloop
  endfacet
  facet normal 1.000000e+00 -9.011551e-17 0.000000e+00
    outer loop
      vertex   4.250000e+01 3.000000e+00 -4.336809e-16
      vertex   4.250000e+01 8.000000e+01 0.000000e+00
      vertex   4.250000e+01 8.000000e+01 1.000000e+00
    endloop
  endfacet
  facet normal 1.000000e+00 0.000000e+00 -6.938894e-15
    outer loop
      vertex   4.250000e+01 8.000000e+01 1.000000e+00
      vertex   4.250000e+01 3.000000e+00 1.000000e+00
      vertex   4.250000e+01 3.000000e+00 -4.336809e-16
    endloop
  endfacet
  facet normal 0.000000e+00 0.000000e+00 1.000000e+00
    outer loop
      vertex   4.125000e+01 3.000000e+00 1.000000e+00
      vertex   4.250000e+01 3.000000e+00 1.000000e+00
      vertex   4.250000e+01 8.000000e+01 1.000000e+00
    endloop
  endfacet
  facet normal 0.000000e+00 0.000000e+00 1.000000e+00
    outer loop
      vertex   4.250000e+01 8.000000e+01 1.000000e+00
      vertex   4.125000e+01 8.000000e+01 1.000000e+00
      vertex   4.125000e+01 3.000000e+00 1.000000e+00
    endloop
  endfacet
  facet normal -0.000000e+00 0.000000e+00 1.000000e+00
    outer loop
      vertex   0.000000e+00 3.000000e+00 1.000000e+00
      vertex   1.250000e+00 3.000000e+00 1.000000e+00
      vertex   1.250000e+00 8.000000e+01 1.000000e+00
    endloop
  endfacet
  facet normal 0.000000e+00 0.000000e+00 1.000000e+00
    outer loop
      vertex   1.250000e+00 8.000000e+01 1.000000e+00
      vertex   0.000000e+00 8.000000e+01 1.000000e+00
      vertex   0.000000e+00 3.000000e+00 1.000000e+00
    endloop
  endfacet
  facet normal -1.000000e+00 0.000000e+00 0.000000e+00
    outer loop
      vertex   1.250000e+00 3.000000e+00 2.000000e+00
      vertex   1.250000e+00 8.000000e+01 2.000000e+00
      vertex   1.250000e+00 8.000000e+01 1.000000e+00
    endloop
  endfacet
  facet normal -1.000000e+00 0.000000e+00 0.000000e+00
    outer loop
      vertex   1.250000e+00 8.000000e+01 1.000000e+00
      vertex   1.250000e+00 3.000000e+00 1.000000e+00
      vertex   1.250000e+00 3.000000e+00 2.000000e+00
    endloop
  endfacet
  facet normal 1.000000e+00 0.000000e+00 0.000000e+00
    outer loop
      vertex   4.125000e+01 3.000000e+00 1.000000e+00
      vertex   4.125000e+01 8.000000e+01 1.000000e+00
      vertex   4.125000e+01 8.000000e+01 2.000000e+00
    endloop
  endfacet
  facet normal 1.000000e+00 0.000000e+00 0.000000e+00
    outer loop
      vertex   4.125000e+01 8.000000e+01 2.000000e+00
      vertex   4.125000e+01 3.000000e+00 2.000000e+00
      vertex   4.125000e+01 3.000000e+00 1.000000e+00
    endloop
  endfacet
  facet normal 0.000000e+00 0.000000e+00 -1.000000e+00
    outer loop
      vertex   -1.250000e+00 3.000000e+00 2.000000e+00
      vertex   -1.250000e+00 8.000000e+01 2.000000e+00
      vertex   1.250000e+00 8.000000e+01 2.000000e+00
    endloop
  endfacet
  facet normal 0.000000e+00 -0.000000e+00 -1.000000e+00
    outer loop
      vertex   1.250000e+00 8.000000e+01 2.000000e+00
      vertex   1.250000e+00 3.000000e+00 2.000000e+00
      vertex   -1.250000e+00 3.000000e+00 2.000000e+00
    endloop
  endfacet
  facet normal 0.000000e+00 0.000000e+00 -1.000000e+00
    outer loop
      vertex   4.125000e+01 3.000000e+00 2.000000e+00
      vertex   4.125000e+01 8.000000e+01 2.000000e+00
      vertex   4.375000e+01 8.000000e+01 2.000000e+00
    endloop
  endfacet
  facet normal 0.000000e+00 -0.000000e+00 -1.000000e+00
    outer loop
      vertex   4.375000e+01 8.000000e+01 2.000000e+00
      vertex   4.375000e+01 3.000000e+00 2.000000e+00
      vertex   4.125000e+01 3.000000e+00 2.000000e+00
    endloop
  endfacet
  facet normal 0.000000e+00 -1.000000e+00 0.000000e+00
    outer loop
      vertex   4.125000e+01 3.000000e+00 2.000000e+00
      vertex   4.375000e+01 3.000000e+00 2.000000e+00
      vertex   4.375000e+01 3.000000e+00 3.000000e+00
    endloop
  endfacet
  facet normal 0.000000e+00 -1.000000e+00 -0.000000e+00
    outer loop
      vertex   4.125000e+01 3.000000e+00 1.000000e+00
      vertex   0.000000e+00 3.000000e+00 -4.336809e-16
      vertex   4.250000e+01 3.000000e+00 -4.336809e-16
    endloop
  endfacet
  facet normal 0.000000e+00 -1.000000e+00 0.000000e+00
    outer loop
      vertex   4.250000e+01 3.000000e+00 -4.336809e-16
      vertex   4.250000e+01 3.000000e+00 1.000000e+00
      vertex   4.125000e+01 3.000000e+00 1.000000e+00
    endloop
  endfacet
  facet normal 0.000000e+00 -1.000000e+00 0.000000e+00
    outer loop
      vertex   -1.250000e+00 3.000000e+00 3.000000e+00
      vertex   -1.250000e+00 3.000000e+00 2.000000e+00
      vertex   1.250000e+00 3.000000e+00 2.000000e+00
    endloop
  endfacet
  facet normal -5.551115e-15 -1.000000e+00 1.262794e-30
    outer loop
      vertex   1.250000e+00 3.000000e+00 1.000000e+00
      vertex   0.000000e+00 3.000000e+00 1.000000e+00
      vertex   0.000000e+00 3.000000e+00 -4.336809e-16
    endloop
  endfacet
  facet normal 1.734723e-16 -1.000000e+00 -7.155734e-15
    outer loop
      vertex   0.000000e+00 3.000000e+00 -4.336809e-16
      vertex   4.125000e+01 3.000000e+00 1.000000e+00
      vertex   1.250000e+00 3.000000e+00 1.000000e+00
    endloop
  endfacet
  facet normal 1.734723e-16 -1.000000e+00 6.938894e-15
    outer loop
      vertex   1.250000e+00 3.000000e+00 2.000000e+00
      vertex   1.250000e+00 3.000000e+00 1.000000e+00
      vertex   4.125000e+01 3.000000e+00 1.000000e+00
    endloop
  endfacet
  facet normal 0.000000e+00 -1.000000e+00 0.000000e+00
    outer loop
      vertex   4.125000e+01 3.000000e+00 1.000000e+00
      vertex   4.125000e+01 3.000000e+00 2.000000e+00
      vertex   1.250000e+00 3.000000e+00 2.000000e+00
    endloop
  endfacet
  facet normal 0.000000e+00 -1.000000e+00 0.000000e+00
    outer loop
      vertex   1.250000e+00 3.000000e+00 2.000000e+00
      vertex   4.125000e+01 3.000000e+00 2.000000e+00
      vertex   -1.250000e+00 3.000000e+00 3.000000e+00
    endloop
  endfacet
  facet normal -0.000000e+00 -1.000000e+00 0.000000e+00
    outer loop
      vertex   4.375000e+01 3.000000e+00 3.000000e+00
      vertex   -1.250000e+00 3.000000e+00 3.000000e+00
      vertex   4.125000e+01 3.000000e+00 2.000000e+00
    endloop
  endfacet
  facet normal 1.000000e+00 0.000000e+00 0.000000e+00
    outer loop
      vertex   4.375000e+01 3.000000e+00 2.000000e+00
      vertex   4.375000e+01 8.000000e+01 2.000000e+00
      vertex   4.375000e+01 8.000000e+01 3.000000e+00
    endloop
  endfacet
  facet normal 1.000000e+00 0.000000e+00 0.000000e+00
    outer loop
      vertex   4.375000e+01 8.000000e+01 3.000000e+00
      vertex   4.375000e+01 3.000000e+00 3.000000e+00
      vertex   4.375000e+01 3.000000e+00 2.000000e+00
    endloop
  endfacet
  facet normal 0.000000e+00 -5.632219e-18 1.000000e+00
    outer loop
      vertex   -1.250000e+00 3.000000e+00 3.000000e+00
      vertex   4.375000e+01 3.000000e+00 3.000000e+00
      vertex   4.375000e+01 8.000000e+01 3.000000e+00
    endloop
  endfacet
  facet normal -2.225281e-16 1.244166e-16 1.000000e+00
    outer loop
      vertex   4.375000e+01 8.000000e+01 3.000000e+00
      vertex   4.250000e+01 8.125000e+01 3.000000e+00
      vertex   -1.250000e+00 3.000000e+00 3.000000e+00
    endloop
  endfacet
  facet normal 0.000000e+00 0.000000e+00 1.000000e+00
    outer loop
      vertex   4.250000e+01 8.125000e+01 3.000000e+00
      vertex   -1.250000e+00 8.125000e+01 3.000000e+00
      vertex   -1.250000e+00 3.000000e+00 3.000000e+00
    endloop
  endfacet
  facet normal 0.000000e+00 1.000000e+00 0.000000e+00
    outer loop
      vertex   4.250000e+01 8.125000e+01 3.000000e+00
      vertex   4.250000e+01 8.125000e+01 -1.200000e+01
      vertex   -1.250000e+00 8.125000e+01 -1.200000e+01
    endloop
  endfacet
  facet normal 0.000000e+00 1.000000e+00 0.000000e+00
    outer loop
      vertex   -1.250000e+00 8.125000e+01 -1.200000e+01
      vertex   -1.250000e+00 8.125000e+01 3.000000e+00
      vertex   4.250000e+01 8.125000e+01 3.000000e+00
    endloop
  endfacet
  facet normal 0.000000e+00 0.000000e+00 1.000000e+00
    outer loop
      vertex   8.750000e+00 1.150000e+02 -1.200000e+01
      vertex   -1.250000e+00 1.150000e+02 -1.200000e+01
      vertex   -1.250000e+00 8.125000e+01 -1.200000e+01
    endloop
  endfacet
  facet normal 0.000000e+00 0.000000e+00 1.000000e+00
    outer loop
      vertex   -1.250000e+00 8.125000e+01 -1.200000e+01
      vertex   4.250000e+01 8.125000e+01 -1.200000e+01
      vertex   8.750000e+00 1.150000e+02 -1.200000e+01
    endloop
  endfacet
  facet normal -1.000000e+00 -4.505775e-17 0.000000e+00
    outer loop
      vertex   -1.250000e+00 8.000000e+01 2.000000e+00
      vertex   -1.250000e+00 3.000000e+00 2.000000e+00
      vertex   -1.250000e+00 3.000000e+00 3.000000e+00
    endloop
  endfacet
  facet normal -1.000000e+00 4.433798e-17 6.883471e-15
    outer loop
      vertex   -1.250000e+00 3.000000e+00 3.000000e+00
      vertex   -1.250000e+00 8.125000e+01 3.000000e+00
      vertex   -1.250000e+00 8.000000e+01 2.000000e+00
    endloop
  endfacet
  facet normal -1.000000e+00 5.714383e-15 -2.040851e-16
    outer loop
      vertex   -1.250000e+00 8.000000e+01 -1.500000e+01
      vertex   -1.250000e+00 8.000000e+01 2.000000e+00
      vertex   -1.250000e+00 8.125000e+01 3.000000e+00
    endloop
  endfacet
  facet normal -1.000000e+00 2.775558e-15 0.000000e+00
    outer loop
      vertex   -1.250000e+00 8.125000e+01 3.000000e+00
      vertex   -1.250000e+00 8.125000e+01 -1.200000e+01
      vertex   -1.250000e+00 8.000000e+01 -1.500000e+01
    endloop
  endfacet
  facet normal -1.000000e+00 0.000000e+00 1.156482e-15
    outer loop
      vertex   -1.250000e+00 1.150000e+02 -1.500000e+01
      vertex   -1.250000e+00 8.000000e+01 -1.500000e+01
      vertex   -1.250000e+00 8.125000e+01 -1.200000e+01
    endloop
  endfacet
  facet normal -1.000000e+00 -1.027984e-16 -1.392137e-31
    outer loop
      vertex   -1.250000e+00 8.125000e+01 -1.200000e+01
      vertex   -1.250000e+00 1.150000e+02 -1.200000e+01
      vertex   -1.250000e+00 1.150000e+02 -1.500000e+01
    endloop
  endfacet
  facet normal 7.071068e-01 7.071068e-01 -2.748222e-15
    outer loop
      vertex   4.375000e+01 8.000000e+01 -1.300000e+01
      vertex   8.750000e+00 1.150000e+02 -1.300000e+01
      vertex   8.750000e+00 1.150000e+02 -1.200000e+01
    endloop
  endfacet
  facet normal 7.071068e-01 7.071068e-01 2.748222e-15
    outer loop
      vertex   8.750000e+00 1.150000e+02 -1.200000e+01
      vertex   4.250000e+01 8.125000e+01 -1.200000e+01
      vertex   4.375000e+01 8.000000e+01 -1.300000e+01
    endloop
  endfacet
  facet normal 7.071068e-01 7.071068e-01 0.000000e+00
    outer loop
      vertex   4.375000e+01 8.000000e+01 2.000000e+00
      vertex   4.375000e+01 8.000000e+01 -1.300000e+01
      vertex   4.250000e+01 8.125000e+01 -1.200000e+01
    endloop
  endfacet
  facet normal 7.071068e-01 7.071068e-01 -0.000000e+00
    outer loop
      vertex   4.250000e+01 8.125000e+01 -1.200000e+01
      vertex   4.250000e+01 8.125000e+01 3.000000e+00
      vertex   4.375000e+01 8.000000e+01 2.000000e+00
    endloop
  endfacet
  facet normal 7.071068e-01 7.071068e-01 1.127437e-16
    outer loop
      vertex   4.250000e+01 8.125000e+01 3.000000e+00
      vertex   4.375000e+01 8.000000e+01 3.000000e+00
      vertex   4.375000e+01 8.000000e+01 2.000000e+00
    endloop
  endfacet
  facet normal 0.000000e+00 0.000000e+00 -1.000000e+00
    outer loop
      vertex   6.250000e+00 1.150000e+02 -1.300000e+01
      vertex   8.750000e+00 1.150000e+02 -1.300000e+01
      vertex   4.375000e+01 8.000000e+01 -1.300000e+01
    endloop
  endfacet
  facet normal -6.938894e-16 -7.434529e-16 -1.000000e+00
    outer loop
      vertex   4.375000e+01 8.000000e+01 -1.300000e+01
      vertex   4.125000e+01 8.000000e+01 -1.300000e+01
      vertex   6.250000e+00 1.150000e+02 -1.300000e+01
    endloop
  endfacet
  facet normal 7.071068e-01 7.071068e-01 0.000000e+00
    outer loop
      vertex   4.125000e+01 8.000000e+01 -1.300000e+01
      vertex   4.125000e+01 8.000000e+01 -1.400000e+01
      vertex   6.250000e+00 1.150000e+02 -1.400000e+01
    endloop
  endfacet
  facet normal 7.071068e-01 7.071068e-01 1.839952e-15
    outer loop
      vertex   6.250000e+00 1.150000e+02 -1.400000e+01
      vertex   6.250000e+00 1.150000e+02 -1.300000e+01
      vertex   4.125000e+01 8.000000e+01 -1.300000e+01
    endloop
  endfacet
  facet normal -0.000000e+00 -1.000000e+00 0.000000e+00
    outer loop
      vertex   4.375000e+01 8.000000e+01 2.000000e+00
      vertex   4.125000e+01 8.000000e+01 2.000000e+00
      vertex   4.125000e+01 8.000000e+01 1.000000e+00
    endloop
  endfacet
  facet normal -6.530724e-16 -1.000000e+00 1.387779e-14
    outer loop
      vertex   4.125000e+01 8.000000e+01 -1.400000e+01
      vertex   4.125000e+01 8.000000e+01 -1.300000e+01
      vertex   -1.250000e+00 8.000000e+01 -1.500000e+01
    endloop
  endfacet
  facet normal -3.154043e-16 -1.000000e+00 -4.731064e-16
    outer loop
      vertex   4.125000e+01 8.000000e+01 -1.400000e+01
      vertex   -1.250000e+00 8.000000e+01 -1.500000e+01
      vertex   4.275000e+01 8.000000e+01 -1.500000e+01
    endloop
  endfacet
  facet normal 0.000000e+00 -1.000000e+00 0.000000e+00
    outer loop
      vertex   4.275000e+01 8.000000e+01 -1.500000e+01
      vertex   4.275000e+01 8.000000e+01 -1.400000e+01
      vertex   4.125000e+01 8.000000e+01 -1.400000e+01
    endloop
  endfacet
  facet normal 0.000000e+00 -1.000000e+00 0.000000e+00
    outer loop
      vertex   4.125000e+01 8.000000e+01 1.000000e+00
      vertex   4.250000e+01 8.000000e+01 1.000000e+00
      vertex   4.375000e+01 8.000000e+01 2.000000e+00
    endloop
  endfacet
  facet normal 0.000000e+00 -1.000000e+00 0.000000e+00
    outer loop
      vertex   4.375000e+01 8.000000e+01 2.000000e+00
      vertex   4.250000e+01 8.000000e+01 1.000000e+00
      vertex   4.250000e+01 8.000000e+01 0.000000e+00
    endloop
  endfacet
  facet normal 0.000000e+00 -1.000000e+00 0.000000e+00
    outer loop
      vertex   4.250000e+01 8.000000e+01 0.000000e+00
      vertex   4.375000e+01 8.000000e+01 -1.300000e+01
      vertex   4.375000e+01 8.000000e+01 2.000000e+00
    endloop
  endfacet
  facet normal 0.000000e+00 -1.000000e+00 0.000000e+00
    outer loop
      vertex   0.000000e+00 8.000000e+01 1.000000e+00
      vertex   1.250000e+00 8.000000e+01 1.000000e+00
      vertex   1.250000e+00 8.000000e+01 2.000000e+00
    endloop
  endfacet
  facet normal -0.000000e+00 -1.000000e+00 0.000000e+00
    outer loop
      vertex   1.250000e+00 8.000000e+01 2.000000e+00
      vertex   -1.250000e+00 8.000000e+01 2.000000e+00
      vertex   0.000000e+00 8.000000e+01 1.000000e+00
    endloop
  endfacet
  facet normal 0.000000e+00 -1.000000e+00 0.000000e+00
    outer loop
      vertex   0.000000e+00 8.000000e+01 0.000000e+00
      vertex   0.000000e+00 8.000000e+01 1.000000e+00
      vertex   -1.250000e+00 8.000000e+01 2.000000e+00
    endloop
  endfacet
  facet normal 0.000000e+00 -1.000000e+00 0.000000e+00
    outer loop
      vertex   -1.250000e+00 8.000000e+01 2.000000e+00
      vertex   -1.250000e+00 8.000000e+01 -1.500000e+01
      vertex   0.000000e+00 8.000000e+01 0.000000e+00
    endloop
  endfacet
  facet normal -0.000000e+00 -1.000000e+00 0.000000e+00
    outer loop
      vertex   4.250000e+01 8.000000e+01 0.000000e+00
      vertex   0.000000e+00 8.000000e+01 0.000000e+00
      vertex   -1.250000e+00 8.000000e+01 -1.500000e+01
    endloop
  endfacet
  facet normal 0.000000e+00 -1.000000e+00 0.000000e+00
    outer loop
      vertex   -1.250000e+00 8.000000e+01 -1.500000e+01
      vertex   4.125000e+01 8.000000e+01 -1.300000e+01
      vertex   4.250000e+01 8.000000e+01 0.000000e+00
    endloop
  endfacet
  facet normal 0.000000e+00 -1.000000e+00 0.000000e+00
    outer loop
      vertex   4.125000e+01 8.000000e+01 -1.300000e+01
      vertex   4.375000e+01 8.000000e+01 -1.300000e+01
      vertex   4.250000e+01 8.000000e+01 0.000000e+00
    endloop
  endfacet
  facet normal 0.000000e+00 1.000000e+00 0.000000e+00
    outer loop
      vertex   8.750000e+00 1.150000e+02 -1.200000e+01
      vertex   8.750000e+00 1.150000e+02 -1.300000e+01
      vertex   6.250000e+00 1.150000e+02 -1.300000e+01
    endloop
  endfacet
  facet normal -0.000000e+00 1.000000e+00 0.000000e+00
    outer loop
      vertex   6.250000e+00 1.150000e+02 -1.400000e+01
      vertex   7.750000e+00 1.150000e+02 -1.400000e+01
      vertex   7.750000e+00 1.150000e+02 -1.500000e+01
    endloop
  endfacet
  facet normal 0.000000e+00 1.000000e+00 0.000000e+00
    outer loop
      vertex   7.750000e+00 1.150000e+02 -1.500000e+01
      vertex   -1.250000e+00 1.150000e+02 -1.500000e+01
      vertex   6.250000e+00 1.150000e+02 -1.400000e+01
    endloop
  endfacet
  facet normal 0.000000e+00 1.000000e+00 0.000000e+00
    outer loop
      vertex   6.250000e+00 1.150000e+02 -1.300000e+01
      vertex   6.250000e+00 1.150000e+02 -1.400000e+01
      vertex   -1.250000e+00 1.150000e+02 -1.500000e+01
    endloop
  endfacet
  facet normal 0.000000e+00 1.000000e+00 0.000000e+00
    outer loop
      vertex   -1.250000e+00 1.150000e+02 -1.500000e+01
      vertex   -1.250000e+00 1.150000e+02 -1.200000e+01
      vertex   6.250000e+00 1.150000e+02 -1.300000e+01
    endloop
  endfacet
  facet normal 0.000000e+00 1.000000e+00 -0.000000e+00
    outer loop
      vertex   6.250000e+00 1.150000e+02 -1.300000e+01
      vertex   -1.250000e+00 1.150000e+02 -1.200000e+01
      vertex   8.750000e+00 1.150000e+02 -1.200000e+01
    endloop
  endfacet
  facet normal 0.000000e+00 0.000000e+00 1.000000e+00
    outer loop
      vertex   6.250000e+00 1.150000e+02 -1.400000e+01
      vertex   4.125000e+01 8.000000e+01 -1.400000e+01
      vertex   4.275000e+01 8.000000e+01 -1.400000e+01
    endloop
  endfacet
  facet normal 0.000000e+00 0.000000e+00 1.000000e+00
    outer loop
      vertex   4.275000e+01 8.000000e+01 -1.400000e+01
      vertex   7.750000e+00 1.150000e+02 -1.400000e+01
      vertex   6.250000e+00 1.150000e+02 -1.400000e+01
    endloop
  endfacet
  facet normal 7.071068e-01 7.071068e-01 0.000000e+00
    outer loop
      vertex   4.275000e+01 8.000000e+01 -1.400000e+01
      vertex   4.275000e+01 8.000000e+01 -1.500000e+01
      vertex   7.750000e+00 1.150000e+02 -1.500000e+01
    endloop
  endfacet
  facet normal 7.071068e-01 7.071068e-01 -0.000000e+00
    outer loop
      vertex   7.750000e+00 1.150000e+02 -1.500000e+01
      vertex   7.750000e+00 1.150000e+02 -1.400000e+01
      vertex   4.275000e+01 8.000000e+01 -1.400000e+01
    endloop
  endfacet
  facet normal 0.000000e+00 0.000000e+00 -1.000000e+00
    outer loop
      vertex   -1.250000e+00 8.000000e+01 -1.500000e+01
      vertex   -1.250000e+00 1.150000e+02 -1.500000e+01
      vertex   7.750000e+00 1.150000e+02 -1.500000e+01
    endloop
  endfacet
  facet normal 0.000000e+00 -0.000000e+00 -1.000000e+00
    outer loop
      vertex   7.750000e+00 1.150000e+02 -1.500000e+01
      vertex   4.275000e+01 8.000000e+01 -1.500000e+01
      vertex   -1.250000e+00 8.000000e+01 -1.500000e+01
    endloop
  endfacet
endsolid
